<svg xmlns="http://www.w3.org/2000/svg" viewBox="0 0 900 370" width="900" height="370" role="img" aria-label="Linux Filesystem Hierarchy">
<defs><marker id="a" viewBox="0 0 10 10" refX="9" refY="5" markerWidth="7" markerHeight="7" orient="auto-start-reverse"><path d="M0 0L10 5L0 10z" fill="#1f2937"/></marker></defs>
<rect width="900" height="370" rx="14" fill="#ffffff" stroke="#d1d5db"/>
<text x="450.0" y="30" text-anchor="middle" font-size="17" font-weight="700" fill="#1f2937" font-family="Segoe UI, Arial, sans-serif">Linux Filesystem Hierarchy</text>
<rect x="400" y="50" width="100" height="40" rx="9" fill="#dbeafe" stroke="#2563eb" stroke-width="1.6"/>
<text x="450.0" y="76.3" text-anchor="middle" font-size="18" font-weight="700" fill="#1f2937" font-family="Segoe UI, Arial, sans-serif">/</text>
<line x1="450" y1="90" x2="65" y2="130" stroke="#6b7280" stroke-width="1.4"/>
<rect x="22" y="130" width="86" height="56" rx="9" fill="#dcfce7" stroke="#16a34a" stroke-width="1.6"/>
<text x="65.0" y="154.05" text-anchor="middle" font-size="13" font-weight="700" fill="#1f2937" font-family="Segoe UI, Arial, sans-serif">/bin</text>
<text x="65.0" y="171.05" text-anchor="middle" font-size="12" font-weight="400" fill="#6b7280" font-family="Segoe UI, Arial, sans-serif">programs</text>
<line x1="450" y1="90" x2="160" y2="130" stroke="#6b7280" stroke-width="1.4"/>
<rect x="117" y="130" width="86" height="56" rx="9" fill="#ffedd5" stroke="#ea580c" stroke-width="1.6"/>
<text x="160.0" y="154.05" text-anchor="middle" font-size="13" font-weight="700" fill="#1f2937" font-family="Segoe UI, Arial, sans-serif">/etc</text>
<text x="160.0" y="171.05" text-anchor="middle" font-size="12" font-weight="400" fill="#6b7280" font-family="Segoe UI, Arial, sans-serif">configuration</text>
<line x1="450" y1="90" x2="255" y2="130" stroke="#6b7280" stroke-width="1.4"/>
<rect x="212" y="130" width="86" height="56" rx="9" fill="#dcfce7" stroke="#16a34a" stroke-width="1.6"/>
<text x="255.0" y="154.05" text-anchor="middle" font-size="13" font-weight="700" fill="#1f2937" font-family="Segoe UI, Arial, sans-serif">/home</text>
<text x="255.0" y="171.05" text-anchor="middle" font-size="12" font-weight="400" fill="#6b7280" font-family="Segoe UI, Arial, sans-serif">users files</text>
<line x1="450" y1="90" x2="350" y2="130" stroke="#6b7280" stroke-width="1.4"/>
<rect x="307" y="130" width="86" height="56" rx="9" fill="#dcfce7" stroke="#16a34a" stroke-width="1.6"/>
<text x="350.0" y="154.05" text-anchor="middle" font-size="13" font-weight="700" fill="#1f2937" font-family="Segoe UI, Arial, sans-serif">/root</text>
<text x="350.0" y="171.05" text-anchor="middle" font-size="12" font-weight="400" fill="#6b7280" font-family="Segoe UI, Arial, sans-serif">root home</text>
<line x1="450" y1="90" x2="445" y2="130" stroke="#6b7280" stroke-width="1.4"/>
<rect x="402" y="130" width="86" height="56" rx="9" fill="#ffedd5" stroke="#ea580c" stroke-width="1.6"/>
<text x="445.0" y="154.05" text-anchor="middle" font-size="13" font-weight="700" fill="#1f2937" font-family="Segoe UI, Arial, sans-serif">/tmp</text>
<text x="445.0" y="171.05" text-anchor="middle" font-size="12" font-weight="400" fill="#6b7280" font-family="Segoe UI, Arial, sans-serif">temporary</text>
<line x1="450" y1="90" x2="540" y2="130" stroke="#6b7280" stroke-width="1.4"/>
<rect x="497" y="130" width="86" height="56" rx="9" fill="#dcfce7" stroke="#16a34a" stroke-width="1.6"/>
<text x="540.0" y="154.05" text-anchor="middle" font-size="13" font-weight="700" fill="#1f2937" font-family="Segoe UI, Arial, sans-serif">/usr</text>
<text x="540.0" y="171.05" text-anchor="middle" font-size="12" font-weight="400" fill="#6b7280" font-family="Segoe UI, Arial, sans-serif">apps, libs</text>
<line x1="450" y1="90" x2="635" y2="130" stroke="#6b7280" stroke-width="1.4"/>
<rect x="592" y="130" width="86" height="56" rx="9" fill="#ffedd5" stroke="#ea580c" stroke-width="1.6"/>
<text x="635.0" y="154.05" text-anchor="middle" font-size="13" font-weight="700" fill="#1f2937" font-family="Segoe UI, Arial, sans-serif">/var</text>
<text x="635.0" y="171.05" text-anchor="middle" font-size="12" font-weight="400" fill="#6b7280" font-family="Segoe UI, Arial, sans-serif">logs, data</text>
<line x1="450" y1="90" x2="730" y2="130" stroke="#6b7280" stroke-width="1.4"/>
<rect x="687" y="130" width="86" height="56" rx="9" fill="#dcfce7" stroke="#16a34a" stroke-width="1.6"/>
<text x="730.0" y="154.05" text-anchor="middle" font-size="13" font-weight="700" fill="#1f2937" font-family="Segoe UI, Arial, sans-serif">/dev</text>
<text x="730.0" y="171.05" text-anchor="middle" font-size="12" font-weight="400" fill="#6b7280" font-family="Segoe UI, Arial, sans-serif">devices</text>
<line x1="450" y1="90" x2="825" y2="130" stroke="#6b7280" stroke-width="1.4"/>
<rect x="782" y="130" width="86" height="56" rx="9" fill="#dcfce7" stroke="#16a34a" stroke-width="1.6"/>
<text x="825.0" y="154.05" text-anchor="middle" font-size="13" font-weight="700" fill="#1f2937" font-family="Segoe UI, Arial, sans-serif">/proc</text>
<text x="825.0" y="171.05" text-anchor="middle" font-size="12" font-weight="400" fill="#6b7280" font-family="Segoe UI, Arial, sans-serif">processes</text>
<line x1="160" y1="186" x2="160" y2="212" stroke="#6b7280" stroke-width="1.4"/>
<rect x="113" y="212" width="94" height="74" rx="9" fill="#ffffff" stroke="#ea580c" stroke-width="1.6"/>
<text x="160.0" y="237.2" text-anchor="middle" font-size="12" font-weight="400" fill="#1f2937" font-family="Segoe UI, Arial, sans-serif">passwd</text>
<text x="160.0" y="253.2" text-anchor="middle" font-size="11" font-weight="400" fill="#6b7280" font-family="Segoe UI, Arial, sans-serif">shadow</text>
<text x="160.0" y="269.2" text-anchor="middle" font-size="11" font-weight="400" fill="#6b7280" font-family="Segoe UI, Arial, sans-serif">sudoers</text>
<line x1="445" y1="186" x2="445" y2="212" stroke="#6b7280" stroke-width="1.4"/>
<rect x="398" y="212" width="94" height="58" rx="9" fill="#ffffff" stroke="#ea580c" stroke-width="1.6"/>
<text x="445.0" y="237.2" text-anchor="middle" font-size="12" font-weight="400" fill="#1f2937" font-family="Segoe UI, Arial, sans-serif">anyone can</text>
<text x="445.0" y="253.2" text-anchor="middle" font-size="11" font-weight="400" fill="#6b7280" font-family="Segoe UI, Arial, sans-serif">write here</text>
<line x1="635" y1="186" x2="635" y2="212" stroke="#6b7280" stroke-width="1.4"/>
<rect x="588" y="212" width="94" height="58" rx="9" fill="#ffffff" stroke="#ea580c" stroke-width="1.6"/>
<text x="635.0" y="237.2" text-anchor="middle" font-size="12" font-weight="400" fill="#1f2937" font-family="Segoe UI, Arial, sans-serif">log/</text>
<text x="635.0" y="253.2" text-anchor="middle" font-size="11" font-weight="400" fill="#6b7280" font-family="Segoe UI, Arial, sans-serif">auth.log</text>
<rect x="150" y="316" width="14" height="14" rx="3" fill="#ffedd5" stroke="#ea580c"/><text x="172" y="328" text-anchor="start" font-size="12.5" font-weight="400" fill="#1f2937" font-family="Segoe UI, Arial, sans-serif">Directories a SOC analyst checks first</text>
<rect x="470" y="316" width="14" height="14" rx="3" fill="#dcfce7" stroke="#16a34a"/><text x="492" y="328" text-anchor="start" font-size="12.5" font-weight="400" fill="#1f2937" font-family="Segoe UI, Arial, sans-serif">Other standard directories</text>
<text x="450.0" y="352" text-anchor="middle" font-size="12.5" font-weight="400" fill="#6b7280" font-family="Segoe UI, Arial, sans-serif">Everything in Linux is a file, and everything hangs from one root: /</text>
</svg>
