<svg viewBox="0 0 600 480" xmlns="http://www.w3.org/2000/svg" font-family="Arial, sans-serif">
  <rect x="0" y="0" width="600" height="480" fill="#ffffff"/>
  <text x="300" y="35" text-anchor="middle" font-size="20" font-weight="bold" fill="#1f2937">Hybrid Topology — طوبولوجيا مختلطة</text>

  <line x1="150" y1="250" x2="450" y2="250" stroke="#374151" stroke-width="4"/>

  <line x1="150" y1="250" x2="60"  y2="150" stroke="#374151" stroke-width="3"/>
  <line x1="150" y1="250" x2="60"  y2="350" stroke="#374151" stroke-width="3"/>
  <line x1="150" y1="250" x2="150" y2="400" stroke="#374151" stroke-width="3"/>

  <line x1="450" y1="250" x2="540" y2="150" stroke="#374151" stroke-width="3"/>
  <line x1="450" y1="250" x2="540" y2="350" stroke="#374151" stroke-width="3"/>
  <line x1="450" y1="250" x2="450" y2="400" stroke="#374151" stroke-width="3"/>

  <rect x="120" y="220" width="60" height="60" rx="8" fill="#f59e0b"/>
  <text x="150" y="255" text-anchor="middle" font-size="13" fill="#ffffff" font-weight="bold">Hub1</text>

  <rect x="420" y="220" width="60" height="60" rx="8" fill="#f59e0b"/>
  <text x="450" y="255" text-anchor="middle" font-size="13" fill="#ffffff" font-weight="bold">Hub2</text>

  <circle cx="60" cy="150" r="20" fill="#3b82f6"/>
  <text x="60" y="155" text-anchor="middle" font-size="12" fill="#ffffff">PC1</text>

  <circle cx="60" cy="350" r="20" fill="#3b82f6"/>
  <text x="60" y="355" text-anchor="middle" font-size="12" fill="#ffffff">PC2</text>

  <circle cx="150" cy="400" r="20" fill="#3b82f6"/>
  <text x="150" y="405" text-anchor="middle" font-size="12" fill="#ffffff">PC3</text>

  <circle cx="540" cy="150" r="20" fill="#3b82f6"/>
  <text x="540" y="155" text-anchor="middle" font-size="12" fill="#ffffff">PC4</text>

  <circle cx="540" cy="350" r="20" fill="#3b82f6"/>
  <text x="540" y="355" text-anchor="middle" font-size="12" fill="#ffffff">PC5</text>

  <circle cx="450" cy="400" r="20" fill="#3b82f6"/>
  <text x="450" y="405" text-anchor="middle" font-size="12" fill="#ffffff">PC6</text>

  <text x="300" y="450" text-anchor="middle" font-size="13" fill="#6b7280">مزيج بين شكلين Star متصلين ببعض — مثال على الـ Hybrid</text>
</svg>
