<svg viewBox="0 0 600 500" xmlns="http://www.w3.org/2000/svg" font-family="Arial, sans-serif">
  <rect x="0" y="0" width="600" height="500" fill="#ffffff"/>
  <text x="300" y="35" text-anchor="middle" font-size="20" font-weight="bold" fill="#1f2937">Star Topology — طوبولوجيا النجمة</text>

  <line x1="300" y1="260" x2="300" y2="80"  stroke="#374151" stroke-width="3"/>
  <line x1="300" y1="260" x2="456" y2="170" stroke="#374151" stroke-width="3"/>
  <line x1="300" y1="260" x2="456" y2="350" stroke="#374151" stroke-width="3"/>
  <line x1="300" y1="260" x2="300" y2="440" stroke="#374151" stroke-width="3"/>
  <line x1="300" y1="260" x2="144" y2="350" stroke="#374151" stroke-width="3"/>
  <line x1="300" y1="260" x2="144" y2="170" stroke="#374151" stroke-width="3"/>

  <circle cx="300" cy="80"  r="22" fill="#3b82f6"/>
  <text x="300" y="85" text-anchor="middle" font-size="13" fill="#ffffff">PC1</text>

  <circle cx="456" cy="170" r="22" fill="#3b82f6"/>
  <text x="456" y="175" text-anchor="middle" font-size="13" fill="#ffffff">PC2</text>

  <circle cx="456" cy="350" r="22" fill="#3b82f6"/>
  <text x="456" y="355" text-anchor="middle" font-size="13" fill="#ffffff">PC3</text>

  <circle cx="300" cy="440" r="22" fill="#3b82f6"/>
  <text x="300" y="445" text-anchor="middle" font-size="13" fill="#ffffff">PC4</text>

  <circle cx="144" cy="350" r="22" fill="#3b82f6"/>
  <text x="144" y="355" text-anchor="middle" font-size="13" fill="#ffffff">PC5</text>

  <circle cx="144" cy="170" r="22" fill="#3b82f6"/>
  <text x="144" y="175" text-anchor="middle" font-size="13" fill="#ffffff">PC6</text>

  <rect x="270" y="230" width="60" height="60" rx="8" fill="#f59e0b"/>
  <text x="300" y="265" text-anchor="middle" font-size="13" fill="#ffffff" font-weight="bold">Switch</text>

  <text x="300" y="480" text-anchor="middle" font-size="13" fill="#6b7280">كل الأجهزة متوصلة بجهاز مركزي واحد (Switch / Hub)</text>
</svg>
