<svg viewBox="0 0 600 500" xmlns="http://www.w3.org/2000/svg" font-family="Arial, sans-serif">
  <rect x="0" y="0" width="600" height="500" fill="#ffffff"/>
  <text x="300" y="35" text-anchor="middle" font-size="20" font-weight="bold" fill="#1f2937">Mesh Topology — طوبولوجيا الشبكة الكاملة</text>

  <g stroke="#9ca3af" stroke-width="2">
    <line x1="300" y1="80"  x2="471" y2="204"/>
    <line x1="300" y1="80"  x2="406" y2="406"/>
    <line x1="300" y1="80"  x2="194" y2="406"/>
    <line x1="300" y1="80"  x2="129" y2="204"/>
    <line x1="471" y1="204" x2="406" y2="406"/>
    <line x1="471" y1="204" x2="194" y2="406"/>
    <line x1="471" y1="204" x2="129" y2="204"/>
    <line x1="406" y1="406" x2="194" y2="406"/>
    <line x1="406" y1="406" x2="129" y2="204"/>
    <line x1="194" y1="406" x2="129" y2="204"/>
  </g>

  <circle cx="300" cy="80"  r="22" fill="#3b82f6"/>
  <text x="300" y="85" text-anchor="middle" font-size="13" fill="#ffffff">PC1</text>

  <circle cx="471" cy="204" r="22" fill="#3b82f6"/>
  <text x="471" y="209" text-anchor="middle" font-size="13" fill="#ffffff">PC2</text>

  <circle cx="406" cy="406" r="22" fill="#3b82f6"/>
  <text x="406" y="411" text-anchor="middle" font-size="13" fill="#ffffff">PC3</text>

  <circle cx="194" cy="406" r="22" fill="#3b82f6"/>
  <text x="194" y="411" text-anchor="middle" font-size="13" fill="#ffffff">PC4</text>

  <circle cx="129" cy="204" r="22" fill="#3b82f6"/>
  <text x="129" y="209" text-anchor="middle" font-size="13" fill="#ffffff">PC5</text>

  <text x="300" y="475" text-anchor="middle" font-size="13" fill="#6b7280">كل جهاز متوصل بكل الأجهزة التانية مباشرة</text>
</svg>
