<svg viewBox="0 0 640 260" xmlns="http://www.w3.org/2000/svg" font-family="Arial, sans-serif">
  <rect x="0" y="0" width="640" height="260" fill="#ffffff"/>
  <text x="320" y="30" text-anchor="middle" font-size="20" font-weight="bold" fill="#1f2937">Bus Topology — طوبولوجيا الباص</text>

  <line x1="60" y1="150" x2="580" y2="150" stroke="#374151" stroke-width="6" stroke-linecap="round"/>
  <line x1="60" y1="122" x2="60" y2="178" stroke="#9ca3af" stroke-width="4"/>
  <line x1="580" y1="122" x2="580" y2="178" stroke="#9ca3af" stroke-width="4"/>

  <line x1="120" y1="92" x2="120" y2="150" stroke="#374151" stroke-width="3"/>
  <circle cx="120" cy="70" r="22" fill="#3b82f6"/>
  <text x="120" y="75" text-anchor="middle" font-size="13" fill="#ffffff">PC1</text>

  <line x1="220" y1="92" x2="220" y2="150" stroke="#374151" stroke-width="3"/>
  <circle cx="220" cy="70" r="22" fill="#3b82f6"/>
  <text x="220" y="75" text-anchor="middle" font-size="13" fill="#ffffff">PC2</text>

  <line x1="320" y1="92" x2="320" y2="150" stroke="#374151" stroke-width="3"/>
  <circle cx="320" cy="70" r="22" fill="#3b82f6"/>
  <text x="320" y="75" text-anchor="middle" font-size="13" fill="#ffffff">PC3</text>

  <line x1="420" y1="92" x2="420" y2="150" stroke="#374151" stroke-width="3"/>
  <circle cx="420" cy="70" r="22" fill="#3b82f6"/>
  <text x="420" y="75" text-anchor="middle" font-size="13" fill="#ffffff">PC4</text>

  <line x1="520" y1="92" x2="520" y2="150" stroke="#374151" stroke-width="3"/>
  <circle cx="520" cy="70" r="22" fill="#3b82f6"/>
  <text x="520" y="75" text-anchor="middle" font-size="13" fill="#ffffff">PC5</text>

  <text x="60" y="205" text-anchor="middle" font-size="12" fill="#6b7280">Terminator</text>
  <text x="580" y="205" text-anchor="middle" font-size="12" fill="#6b7280">Terminator</text>
  <text x="320" y="235" text-anchor="middle" font-size="13" fill="#6b7280">كل الأجهزة متوصلة على كابل رئيسي واحد (Backbone)</text>
</svg>
