<?xml version="1.0" encoding="UTF-8" standalone="no"?>
<!-- Created with Inkscape (http://www.inkscape.org/) -->

<svg
   xmlns:dc="http://purl.org/dc/elements/1.1/"
   xmlns:cc="http://creativecommons.org/ns#"
   xmlns:rdf="http://www.w3.org/1999/02/22-rdf-syntax-ns#"
   xmlns:svg="http://www.w3.org/2000/svg"
   xmlns="http://www.w3.org/2000/svg"
   xmlns:sodipodi="http://sodipodi.sourceforge.net/DTD/sodipodi-0.dtd"
   xmlns:inkscape="http://www.inkscape.org/namespaces/inkscape"
   width="184.33521mm"
   height="130mm"
   viewBox="0 0 184.33521 130"
   version="1.1"
   id="svg8"
   inkscape:version="0.92.4 (5da689c313, 2019-01-14)"
   sodipodi:docname="Coaxial cable cutaway_Ar.svg">
  <defs
     id="defs2" />
  <sodipodi:namedview
     id="base"
     pagecolor="#ffffff"
     bordercolor="#666666"
     borderopacity="1.0"
     inkscape:pageopacity="0.0"
     inkscape:pageshadow="2"
     inkscape:zoom="0.7"
     inkscape:cx="182.38854"
     inkscape:cy="127.28401"
     inkscape:document-units="mm"
     inkscape:current-layer="g910"
     showgrid="false"
     fit-margin-top="0"
     fit-margin-left="0"
     fit-margin-right="0"
     fit-margin-bottom="0"
     inkscape:window-width="1600"
     inkscape:window-height="847"
     inkscape:window-x="-8"
     inkscape:window-y="-8"
     inkscape:window-maximized="1" />
  <metadata
     id="metadata5">
    <rdf:RDF>
      <cc:Work
         rdf:about="">
        <dc:format>image/svg+xml</dc:format>
        <dc:type
           rdf:resource="http://purl.org/dc/dcmitype/StillImage" />
        <dc:title></dc:title>
      </cc:Work>
    </rdf:RDF>
  </metadata>
  <g
     inkscape:label="Layer 1"
     inkscape:groupmode="layer"
     id="layer1"
     transform="translate(-19.71335,-64.37564)">
    <g
       id="g1018"
       transform="matrix(0.2377395,-0.11612179,0.11612179,0.2377395,34.891776,126.42191)">
      <g
         id="L1">
	<path
   id="path815"
   d="M 181.4,88.1 -50,-22.6 l -45.9,92 230.2,117.5 c 0.7,0.4 24.6,13.3 46.2,-5.7 22.9,-20.2 26,-44.4 26.1,-50.2 0,-18.2 -12.1,-36.3 -25.2,-42.9 z"
   inkscape:connector-curvature="0" />

	
		<linearGradient
   gradientTransform="matrix(1,0,0,-1,182,106)"
   y2="-31"
   x2="-168"
   y1="82"
   x1="-111"
   gradientUnits="userSpaceOnUse"
   id="SVGID_1_">
		<stop
   id="stop817"
   style="stop-color:#000"
   offset="1.780000e-002" />

		<stop
   id="stop819"
   style="stop-color:#1A1A1A"
   offset="0.1822" />

		<stop
   id="stop821"
   style="stop-color:#4F4E4F"
   offset="0.2711" />

		<stop
   id="stop823"
   style="stop-color:#000"
   offset="0.48" />

		<stop
   id="stop825"
   style="stop-color:#000"
   offset="1" />

	</linearGradient>

	<path
   id="path828"
   d="m -44.4,-33.9 -57.1,114.5 230.4,114.1 c -16.4,-8.2 -20.8,-34.1 -20.7,-56.6 0,-7.2 6.1,-26.4 25.4,-45.8 C 148.7,77.2 186,80.2 186,80.2 Z"
   inkscape:connector-curvature="0"
   style="fill:url(#SVGID_1_)" />

</g>
      <g
         id="L2">
	<path
   id="path831"
   d="m 270.6,146.4 -89.6,-38.6 -45.8,63.8 99.4,50.3 c 0.6,0.3 18.8,10.2 35.4,-4.4 17.5,-15.5 19.9,-34 20,-38.4 0,-13.8 -9.3,-27.7 -19.4,-32.7 z"
   inkscape:connector-curvature="0"
   style="fill:#511807" />

	<g
   id="g846">
		
			<linearGradient
   gradientTransform="matrix(1,0,0,-1,182.0195,105.8013)"
   y2="-88.888496"
   x2="-18.5144"
   y1="-1.7644"
   x1="26.0303"
   gradientUnits="userSpaceOnUse"
   id="SVGID_2_">
			<stop
   id="stop833"
   style="stop-color:#511807"
   offset="0" />

			<stop
   id="stop835"
   style="stop-color:#E2AE9F"
   offset="0.2267" />

			<stop
   id="stop837"
   style="stop-color:#A47062"
   offset="0.32" />

			<stop
   id="stop839"
   style="stop-color:#511807"
   offset="1" />

		</linearGradient>

		<path
   id="path842"
   d="M 209.9,108.2 189.6,98 169.5,88 c -3.8,-0.6 -7.9,-0.6 -12,0 -24.8,3.8 -44.9,29 -45,56.2 0,12 3.8,22.4 10.3,29.9 l 25.9,12.9 18.4,9.2 63.3,31.6 c -12.6,-6.3 -15.9,-26.1 -15.9,-43.4 0,-5.5 4.6,-20.2 19.5,-35 11.6,-11.6 40.1,-9.3 40.1,-9.3 z"
   inkscape:connector-curvature="0"
   style="fill:url(#SVGID_2_)" />

		<path
   id="path844"
   d="m 157.5,76 c -2.8,0.4 -5.6,1.1 -8.2,1.9 -26.9,8.5 -47.7,37.2 -47.7,68.1 0,6.8 1,13.2 2.9,19 7.4,23.2 28.2,37.6 52.9,33.8 3.4,-0.5 6.7,-1.4 9.9,-2.5 l -18.4,-9.2 c -10.4,-0.6 -19.4,-5.3 -25.9,-12.9 -6.4,-7.6 -10.3,-18 -10.3,-29.9 0.1,-27.3 20.2,-52.4 45,-56.2 4.2,-0.6 8.2,-0.6 12,0 7.7,1.2 14.6,4.7 20.1,10 l 20.3,10.1 C 202.1,85.9 181.6,72.3 157.5,76 Z"
   inkscape:connector-curvature="0"
   style="fill:#1a1a1a" />

	</g>

	<path
   id="path848"
   d="m 252.4,137.1 c 23.6,-3.6 42.7,14.5 42.7,40.5 0,26 -19.2,50 -42.9,53.6 -23.6,3.6 -42.7,-14.5 -42.7,-40.5 0.1,-26 19.3,-50 42.9,-53.6 z m -0.2,84.8 c 19,-2.9 34.4,-22.2 34.4,-43.1 0,-20.9 -15.3,-35.5 -34.3,-32.5 -19,2.9 -34.4,22.2 -34.4,43.1 0,20.9 15.4,35.4 34.3,32.5"
   inkscape:connector-curvature="0"
   style="fill:#602c1d" />

</g>
      <g
         id="L3">
	<path
   id="path851"
   d="m 338.8,191 -68.4,-29.4 -34.9,48.7 75.8,38.4 c 0.4,0.2 14.4,7.8 27,-3.3 13.4,-11.8 15.2,-26 15.2,-29.3 0.1,-10.7 -7,-21.2 -14.7,-25.1 z"
   inkscape:connector-curvature="0"
   style="fill:#1a1c1c" />

	<g
   id="g866">
		
			<linearGradient
   gradientTransform="matrix(1,0,0,-1,182.0195,105.8013)"
   y2="-122.1181"
   x2="75.122902"
   y1="-55.626701"
   x1="109.1187"
   gradientUnits="userSpaceOnUse"
   id="SVGID_3_">
			<stop
   id="stop853"
   style="stop-color:#88888C"
   offset="0" />

			<stop
   id="stop855"
   style="stop-color:#fff"
   offset="0.2267" />

			<stop
   id="stop857"
   style="stop-color:#EDEDED"
   offset="0.32" />

			<stop
   id="stop859"
   style="stop-color:#BCBCBE"
   offset="0.88" />

			<stop
   id="stop861"
   style="stop-color:#808083"
   offset="1" />

		</linearGradient>

		<path
   id="path864"
   d="m 292.5,161.8 -15.5,-7.7 -15.3,-7.7 c -2.9,-0.4 -6,-0.5 -9.2,0 -18.9,2.9 -34.3,22.1 -34.3,42.9 0,9.1 2.9,17.1 7.9,22.9 l 19.8,9.9 14.1,7 48.3,24.1 c -9.6,-4.8 -12.1,-19.9 -12.1,-33.1 0,-4.2 3.5,-15.4 14.9,-26.7 8.8,-8.8 30.6,-7.1 30.6,-7.1 z"
   inkscape:connector-curvature="0"
   style="fill:url(#SVGID_3_)" />

	</g>

	<path
   id="path868"
   d="m 324.9,183.9 c 18,-2.8 32.6,11.1 32.6,30.9 0,19.8 -14.7,38.2 -32.7,40.9 -18,2.8 -32.6,-11.1 -32.6,-30.9 0,-19.8 14.7,-38.1 32.7,-40.9 z m -0.1,53.4 c 8.8,-1.3 15.9,-10.3 16,-20 0,-9.7 -7.1,-16.4 -15.9,-15.1 -8.8,1.3 -15.9,10.3 -16,20 0,9.7 7.1,16.5 15.9,15.1"
   inkscape:connector-curvature="0"
   style="fill:#828487" />

</g>
      <g
         id="L4"
         transform="matrix(0.87048226,-0.06326181,-0.06326181,0.96910032,53.594463,26.177749)">
	
		<linearGradient
   gradientTransform="matrix(1,0,0,-1,182.0195,105.8013)"
   y2="-192.4827"
   x2="261.09659"
   y1="-162.0784"
   x1="276.6416"
   gradientUnits="userSpaceOnUse"
   id="SVGID_4_">
		<stop
   id="stop871"
   style="stop-color:#511807"
   offset="0" />

		<stop
   id="stop873"
   style="stop-color:#E2AE9F"
   offset="0.2267" />

		<stop
   id="stop875"
   style="stop-color:#A47062"
   offset="0.32" />

		<stop
   id="stop877"
   style="stop-color:#511807"
   offset="1" />

	</linearGradient>

	<path
   id="path880"
   d="m 327.1,202.2 c -1.3,-0.2 -2.6,-0.2 -4,0 -8.3,1.3 -15.1,9.7 -15.1,18.8 0,4 1.3,7.5 3.5,10 l 273.2,136.5 10.5,-30.4 z"
   inkscape:connector-curvature="0"
   style="fill:url(#SVGID_4_)" />

	<g
   transform="translate(184.1592,34.8323)"
   style=""
   id="text884" />

	<g
   transform="translate(274.1758,84.426)"
   style="font-size:24px;font-family:Verdana"
   id="text886" />

	<g
   transform="translate(31.1001,293.6331)"
   style="font-size:24px;font-family:Verdana"
   id="text888" />

	<g
   transform="translate(171.6001,335.1995)"
   style="font-size:24px;font-family:Verdana"
   id="text890" />

</g>
      <g
         id="L5">
	<line
   id="line893"
   y2="58"
   x2="138"
   y1="31"
   x1="179"
   style="fill:none" />

	<line
   id="line895"
   y2="172"
   x2="286"
   y1="93"
   x1="347"
   style="fill:none" />

	<line
   id="line897"
   y2="168"
   x2="177"
   y1="267"
   x1="115"
   style="fill:none" />

	<line
   id="line899"
   y2="260"
   x2="392"
   y1="328"
   x1="322"
   style="fill:none" />

</g>
      <g
         id="g910"
         transform="rotate(2.939616,974.01627,-1016.7806)">
	<g
   id="g908"
   transform="rotate(-52.96209,159.48599,89.056483)">
		<path
   style="fill:none;stroke:#1a1a1a;stroke-width:2"
   d="M 247,45 113,79"
   id="line902" />

		<g
   id="g906">
			<path
   style="fill:#1a1a1a"
   d="m 117,79 a 4,4 0 0 1 -4,4 4,4 0 0 1 -4,-4 4,4 0 0 1 4,-4 4,4 0 0 1 4,4 z"
   id="circle904" />

		</g>

	</g>

<g
   aria-label="عازل خارجي بلاستيكي"
   transform="rotate(22.913506)"
   style="font-style:normal;font-variant:normal;font-weight:normal;font-stretch:normal;font-size:29.33333397px;line-height:1.25;font-family:'Simplified Arabic';-inkscape-font-specification:'Simplified Arabic';letter-spacing:0px;word-spacing:0px;direction:rtl;fill:#000000;fill-opacity:1;stroke:none"
   id="text1037">
  <path
     d="m 280.26549,-81.105494 q -5.05599,1.861979 -10.24088,1.861979 h -3.56641 v -2.492188 h 3.56641 q -0.45834,-0.759114 -0.70183,-1.432291 -0.22916,-0.673177 -0.22916,-1.51823 0,-0.34375 0.0716,-0.730468 0.0716,-0.386719 0.22917,-0.759115 0.17187,-0.372396 0.41536,-0.716146 0.25782,-0.358073 0.60157,-0.644531 0.75911,-0.601562 1.54687,-0.973958 0.80209,-0.386719 1.83334,-0.386719 0.97395,0 1.73307,0.272135 0.77344,0.257813 1.36068,0.701823 0.22916,0.171875 0.64453,0.558594 0.42968,0.386719 1.03125,1.088542 l -0.27214,0.243489 q -1.96224,-0.544271 -3.40885,-0.544271 -1.97657,0 -3.1224,0.444011 -0.54427,0.229167 -0.94531,0.529948 -0.38672,0.300781 -0.38672,0.615885 0,0.329427 0.24349,0.730469 0.24349,0.401042 0.65885,0.816406 0.42969,0.415365 0.98828,0.816407 0.5586,0.386718 1.20313,0.701822 0.95964,-0.143229 1.89062,-0.315104 0.94532,-0.186198 1.89063,-0.401041 0.94531,-0.229167 1.91927,-0.48698 0.97396,-0.272135 2.03385,-0.587239 z"
     style=""
     id="path1183" />
  <path
     d="m 267.43215,-79.386744 -1.0026,0.143229 q -0.98828,0 -1.58984,-0.716146 -0.58724,-0.716146 -0.8737,-2.148437 -0.34375,-1.776042 -0.51563,-5.328126 -0.17187,-3.666666 -0.34375,-4.640625 -0.30078,-1.675781 -1.27474,-2.592448 l 1.69011,-2.664062 h 0.10026 q 0.71614,2.320312 0.91667,6.488281 l 0.28645,6.473959 q 0.12891,1.317708 0.63021,2.033854 0.40104,0.601562 0.85938,0.601562 h 1.11718 z"
     style=""
     id="path1185" />
  <path
     d="m 260.70039,-79.243515 q 0,2.320312 -2.72135,4.697917 -2.50652,2.16276 -4.28256,2.16276 -1.375,0 -3.19401,-0.601562 -1.53255,-0.558594 -3.07942,-1.131511 l 0.24348,-0.572916 q 2.99349,0.572916 3.82422,0.572916 2.76433,0 5.52865,-2.420573 2.64974,-2.334635 2.64974,-4.425781 0,-2.0625 -2.14844,-4.440104 l 0.81641,-2.248698 q 2.36328,2.177083 2.36328,4.927083 z m -2.14844,-13.334636 -1.10286,2.091146 -2.30599,-1.231771 1.05989,-2.091146 z"
     style=""
     id="path1187" />
  <path
     d="m 251.31887,-81.019557 q 0,1.518229 -0.58724,2.592448 -0.58724,1.074219 -1.61849,1.776042 -1.07421,0.730469 -2.52083,1.059896 -1.43229,0.34375 -3.16536,0.34375 -5.94401,0 -5.94401,-4.354167 0,-2.893229 2.47786,-7.390625 l 0.45833,0.272135 q -1.86198,3.322917 -1.86198,5.428386 0,1.747396 1.31771,2.678385 1.27474,0.888021 3.52344,0.888021 2.4349,0 4.48307,-0.830729 2.26302,-0.93099 2.26302,-2.191406 0,-2.707032 -1.76171,-13.191407 l -0.65886,-0.34375 q 0,-0.945312 0.1862,-1.804687 0.1862,-0.859375 0.60156,-1.690105 l 0.24349,0.08594 q 0.0286,0.486979 0.1862,0.744792 0.15755,0.243489 0.47266,0.372395 l 1.83333,0.787761 q 0,0.730469 -0.1862,1.460937 -0.17187,0.730469 -0.34375,1.27474 l -0.8164,-0.257813 0.74479,5.213542 q 0.34375,2.449219 0.5013,4.210938 0.17187,1.747396 0.17187,2.864583 z"
     style=""
     id="path1189" />
  <path
     d="m 226.19647,-79.114609 -1.46094,-0.358073 -2.07682,0.229167 h -12.0599 v -2.492188 h 11.52995 q -2.20573,-1.71875 -3.60938,-2.420573 -1.77604,-0.88802 -3.48046,-0.88802 -0.3724,0 -0.7448,0.02864 -0.35807,0.01432 -0.73046,0.07162 1.03125,-2.635417 3.55208,-2.635417 1.46094,0 3.45182,1.432292 0.44401,0.315104 1.2461,1.002604 0.80208,0.673177 1.97656,1.733073 0.85937,0.773438 1.46094,1.145833 0.60156,0.358073 0.93098,0.444011 l 1.31771,0.329427 z m -6.0586,-13.463542 -1.10286,2.091146 -2.30599,-1.231771 1.0599,-2.091146 z"
     style=""
     id="path1191" />
  <path
     d="m 211.57278,-79.386744 -1.0026,0.143229 q -0.98829,0 -1.58985,-0.716146 -0.58724,-0.716146 -0.8737,-2.148437 -0.34375,-1.776042 -0.51562,-5.328126 -0.17188,-3.666666 -0.34375,-4.640625 -0.30078,-1.675781 -1.27474,-2.592448 l 1.6901,-2.664062 h 0.10026 q 0.71615,2.320312 0.91667,6.488281 l 0.28646,6.473959 q 0.12891,1.317708 0.63021,2.033854 0.40104,0.601562 0.85937,0.601562 h 1.11719 z"
     style=""
     id="path1193" />
  <path
     d="m 204.85533,-79.243515 q 0,2.320312 -2.72136,4.697917 -2.50651,2.16276 -4.28255,2.16276 -1.375,0 -3.19401,-0.601562 -1.53255,-0.558594 -3.07943,-1.131511 l 0.24349,-0.572916 q 2.99349,0.572916 3.82422,0.572916 2.76432,0 5.52865,-2.420573 2.64974,-2.334635 2.64974,-4.425781 0,-2.0625 -2.14844,-4.440104 l 0.81641,-2.248698 q 2.36328,2.177083 2.36328,4.927083 z"
     style=""
     id="path1195" />
  <path
     d="m 195.31627,-79.114609 -1.46094,-0.358073 -2.07682,0.229167 h -12.05989 v -2.492188 h 11.52994 q -2.20573,-1.71875 -3.60937,-2.420573 -1.77604,-0.88802 -3.48047,-0.88802 -0.3724,0 -0.74479,0.02864 -0.35807,0.01432 -0.73047,0.07162 1.03125,-2.635417 3.55208,-2.635417 1.46094,0 3.45183,1.432292 0.44401,0.315104 1.24609,1.002604 0.80208,0.673177 1.97656,1.733073 0.85938,0.773438 1.46094,1.145833 0.60156,0.358073 0.93099,0.444011 l 1.31771,0.329427 z m -6.48828,2.964844 -1.10286,2.091146 -2.30599,-1.231771 1.05989,-2.091146 z"
     style=""
     id="path1197" />
  <path
     d="m 180.73555,-79.386744 -1.00261,0.143229 h -1.5039 q -4.42579,0 -4.42579,1.002604 0,0.415365 1.33204,0.472656 0.35807,0.01432 0.95963,0.07161 0.61589,0.04297 1.47526,0.114583 1.36068,0.157552 1.36068,0.959636 0,2.692708 -1.77604,3.910156 -1.91927,1.317708 -6.33073,1.317708 -3.07943,0 -4.89844,-1.045572 -1.93359,-1.117188 -1.93359,-3.179688 0,-1.675781 0.91666,-3.523438 0.1862,-0.372395 0.61589,-1.088541 0.42969,-0.716146 1.11719,-1.790365 l 0.57291,0.286458 -1.08854,1.847657 q -0.80208,1.561198 -0.80208,2.578125 0,1.747396 1.83333,2.678385 1.73307,0.873698 4.79818,0.873698 1.97656,0 3.6237,-0.329427 1.90494,-0.386719 1.90494,-1.045573 0,-0.401042 -0.93099,-0.486979 l -2.29166,-0.143229 q -1.67578,-0.100261 -1.67578,-0.945313 0,-2.664062 2.24869,-4.039062 1.60417,-0.988282 3.39454,-0.988282 h 2.50651 z m -5.5,10.097656 -1.11719,2.0625 -2.26302,-1.203125 -0.77344,1.460938 -2.32031,-1.203125 1.05989,-2.076823 2.29167,1.174479 0.75911,-1.432292 z"
     style=""
     id="path1199" />
  <path
     d="m 154.13788,-79.243515 h -8.16406 v -2.492188 h 7.11849 q 0,-1.71875 -0.40104,-2.578125 -0.14323,-0.315104 -0.48698,-0.744791 -0.32943,-0.444011 -0.85938,-1.03125 l 1.07422,-2.248698 h 0.10026 q 0.97396,1.231771 1.23177,1.962239 0.38672,1.117188 0.38672,3.638021 z m -3.0651,3.451823 -1.10287,2.091146 -2.30599,-1.231771 1.0599,-2.091146 z"
     style=""
     id="path1201" />
  <path
     d="m 146.81887,-79.386744 -0.8737,0.143229 h -1.0026 q -2.67838,0 -2.82161,-6.072917 0,-0.157552 -0.0286,-0.386719 -0.0143,-0.229166 -0.043,-0.529948 h -0.0859 q -0.65885,1.804688 -1.21744,2.979167 -0.5586,1.160156 -1.04558,1.919271 -0.57291,0.888021 -1.38932,1.503906 -0.80208,0.601563 -1.93359,1.002605 -0.85938,0.315104 -2.46355,0.673177 -1.60416,0.34375 -4.08203,0.759114 l -0.11458,-0.401041 q 5.60026,-2.434896 7.86328,-4.311198 0.90235,-0.759115 1.63281,-1.546875 0.73047,-0.802084 1.2461,-1.647136 0.51562,-0.859375 0.78776,-1.790365 0.28646,-0.930989 0.28646,-1.962239 0,-2.134115 -0.80209,-5.886719 0.30078,-0.816406 0.91667,-2.220052 h 0.11458 q 0.28646,1.532552 0.51563,3.136719 0.24349,1.604166 0.47265,3.351562 0.32943,2.592448 0.50131,4.039063 0.17187,1.432291 0.22916,1.804687 0.44401,3.09375 1.46094,3.09375 h 1.8763 z m -6.93229,-7.347657 q 0,0.472657 -0.12891,0.873698 h -0.10026 q -0.83072,-1.804687 -2.49218,-3.967448 -1.90495,-2.463541 -2.92188,-2.463541 -0.21484,0 -0.42969,0.372395 -0.21484,0.372396 -0.5013,0.372396 -0.67318,0 -2.04818,-1.074219 -1.86197,-1.432291 -1.86197,-3.480468 0,-0.902344 0.5013,-0.902344 0.6875,0 3.05078,1.503906 2.77864,1.747396 4.58333,3.78125 2.34896,2.64974 2.34896,4.984375 z"
     style=""
     id="path1203" />
  <path
     d="m 129.31627,-79.243515 h -1.0026 q -0.28646,0 -0.75912,-0.10026 -0.45833,-0.114584 -0.95963,-0.286459 -0.50131,-0.171875 -0.95964,-0.386719 -0.45833,-0.229166 -0.74479,-0.472656 -0.54427,0.6875 -1.33203,0.973959 -0.77344,0.272135 -1.76172,0.272135 h -1.51823 q -0.84505,0 -1.375,-0.44401 -0.52995,-0.444011 -0.81641,-1.145834 -0.37239,0.501302 -0.78776,0.787761 -0.40104,0.286458 -0.71614,0.429687 -0.83073,0.372396 -2.44922,0.372396 h -1.38933 v -2.492188 h 1.38933 q 1.07422,0 1.77604,-0.20052 0.70182,-0.200521 1.16016,-0.601563 1.01692,-0.902344 1.28906,-3.136719 l 0.75911,0.143229 q -0.0716,0.58724 -0.11458,1.059896 -0.0286,0.472657 -0.0286,0.873698 0,0.959636 0.32943,1.417969 0.32943,0.44401 1.27474,0.44401 h 1.10287 q 1.05989,0 1.6901,-0.286458 0.63021,-0.286458 1.0026,-0.888021 0.3724,-0.572916 0.47266,-1.13151 0.10026,-0.572917 0.12891,-0.945313 0.0286,-0.128906 0.0573,-0.229166 0.0286,-0.114584 0.11458,-0.200521 l 0.5013,-0.458334 h 0.0716 q 0.0286,0.200521 0.043,0.58724 0.0286,0.386719 0.0143,0.701823 -0.0143,0.329427 -0.0286,0.529948 0,0.186198 -0.0143,0.372396 -0.0143,0.171875 -0.043,0.386718 -0.0286,0.214844 -0.10026,0.58724 0.27214,0.200521 0.61589,0.401042 0.34375,0.200521 0.71614,0.358073 0.38672,0.157552 0.80209,0.272135 0.41536,0.10026 0.84505,0.10026 0,-0.78776 -0.1862,-1.375 -0.1862,-0.601562 -0.42969,-1.088541 -0.22916,-0.444011 -0.44401,-0.701823 -0.20052,-0.257813 -0.20052,-0.415365 0.0143,-0.114583 0.0716,-0.229166 0.0573,-0.114584 0.1289,-0.229167 l 0.64453,-1.131511 h 0.0859 q 0.28646,0.444011 0.47266,0.816407 0.1862,0.358073 0.28646,0.658854 0.3151,0.93099 0.3151,2.592448 z"
     style=""
     id="path1205" />
  <path
     d="m 113.74726,-79.386744 -1.0026,0.143229 h -7.16146 v -2.492188 h 7.11849 q 0,-1.71875 -0.40104,-2.578125 -0.14323,-0.315104 -0.48698,-0.744791 -0.32943,-0.444011 -0.85938,-1.03125 l 1.07422,-2.248698 h 0.10026 q 0.97396,1.231771 1.23177,1.962239 0.38672,1.117188 0.38672,3.638021 z m -1.16016,-12.96224 -1.11718,2.0625 -2.26302,-1.203125 -0.77344,1.460937 -2.32031,-1.203125 1.05989,-2.076823 2.29167,1.17448 0.75911,-1.432292 z"
     style=""
     id="path1207" />
  <path
     d="m 106.5858,-79.386744 -1.00261,0.143229 h -7.161455 v -2.492188 h 7.118485 q 0,-1.71875 -0.40104,-2.578125 -0.14323,-0.315104 -0.48698,-0.744791 -0.32942,-0.444011 -0.85937,-1.03125 l 1.07422,-2.248698 h 0.10026 q 0.97396,1.231771 1.23177,1.962239 0.38672,1.117188 0.38672,3.638021 z m -1.28906,3.423177 -1.11719,2.0625 -2.26302,-1.203125 -0.77344,1.460937 -2.320313,-1.203125 1.059896,-2.076823 2.291667,1.17448 0.75911,-1.432292 z"
     style=""
     id="path1209" />
  <path
     d="m 99.410019,-79.386744 -1.002604,0.143229 H 86.848821 v -2.492188 h 10.89974 q -1.790365,-2.692708 -5.772136,-5.070312 l -0.472656,0.44401 q -0.415365,-0.329427 -0.845052,-0.644531 -0.429688,-0.329427 -0.845052,-0.658854 -0.888021,-0.730469 -0.888021,-1.145834 0,-2.463541 1.217448,-3.852864 1.117187,-1.289063 3.838542,-2.334636 l 6.717446,-2.563802 v 2.477865 l -5.671874,1.990885 q -2.076823,0.730469 -3.19401,1.231771 -1.102865,0.501302 -1.102865,0.787761 0,0.143229 0.14323,0.34375 0.143229,0.20052 0.472656,0.44401 l 1.460937,1.088542 q 2.320313,1.733073 3.938802,3.580729 1.632813,1.847656 2.664063,3.88151 z"
     style=""
     id="path1211" />
  <path
     d="m 87.865746,-79.386744 -1.002604,0.143229 h -1.503906 q -4.425782,0 -4.425782,1.002604 0,0.415365 1.332032,0.472656 0.358072,0.01432 0.959635,0.07161 0.615885,0.04297 1.47526,0.114583 1.360678,0.157552 1.360678,0.959636 0,2.692708 -1.776042,3.910156 -1.919271,1.317708 -6.330729,1.317708 -3.079428,0 -4.898438,-1.045572 -1.933594,-1.117188 -1.933594,-3.179688 0,-1.675781 0.916667,-3.523438 0.186198,-0.372395 0.615885,-1.088541 0.429688,-0.716146 1.117188,-1.790365 l 0.572916,0.286458 -1.088541,1.847657 q -0.802084,1.561198 -0.802084,2.578125 0,1.747396 1.833334,2.678385 1.733073,0.873698 4.798177,0.873698 1.976562,0 3.623698,-0.329427 1.904948,-0.386719 1.904948,-1.045573 0,-0.401042 -0.93099,-0.486979 l -2.291666,-0.143229 q -1.675782,-0.100261 -1.675782,-0.945313 0,-2.664062 2.248698,-4.039062 1.604167,-0.988282 3.394532,-0.988282 h 2.50651 z m -5.5,10.097656 -1.117188,2.0625 -2.26302,-1.203125 -0.773438,1.460938 -2.320313,-1.203125 1.059896,-2.076823 2.291667,1.174479 0.759115,-1.432292 z"
     style=""
     id="path1213" />
</g>
</g>
      <g
         id="g920"
         transform="rotate(7.9956264,302.50099,136.40099)">
	<g
   id="g918">
		<path
   style="fill:none;stroke:#1a1a1a;stroke-width:2"
   d="m 316,93 -28,82"
   id="line912" />

		<g
   id="g916">
			<path
   style="fill:#1a1a1a"
   d="m 292,175 a 4,4 0 0 1 -4,4 4,4 0 0 1 -4,-4 4,4 0 0 1 4,-4 4,4 0 0 1 4,4 z"
   id="circle914" />

		</g>

	</g>

</g>
      <g
         id="g930"
         transform="matrix(0.95861784,0.1544406,-0.1858811,0.77135384,22.727746,8.695494)">
	<g
   id="g928">
		<path
   style="fill:none;stroke:#1a1a1a;stroke-width:2"
   d="M 156,267 179,140"
   id="line922" />

		<g
   id="g926">
			<path
   style="fill:#1a1a1a"
   d="m 183,140 a 4,4 0 0 1 -4,4 4,4 0 0 1 -4,-4 4,4 0 0 1 4,-4 4,4 0 0 1 4,4 z"
   id="circle924" />

		</g>

	</g>

</g>
      <g
         id="g940"
         transform="matrix(0.72600691,-0.43967777,0.63612307,0.72149979,-36.940149,244.80129)">
	<g
   id="g938">
		<path
   style="fill:none;stroke:#1a1a1a;stroke-width:2"
   d="M 250,316 374,248"
   id="line932" />

		<g
   id="g936">
			<path
   style="fill:#1a1a1a"
   d="m 378,248 a 4,4 0 0 1 -4,4 4,4 0 0 1 -4,-4 4,4 0 0 1 4,-4 4,4 0 0 1 4,4 z"
   id="circle934" />

		</g>

	</g>

</g>
      <g
         aria-label="أجزاء الكبل المحوري"
         transform="rotate(26.032794)"
         style="font-style:normal;font-variant:normal;font-weight:normal;font-stretch:normal;font-size:37.33333206px;line-height:1.25;font-family:'Simplified Arabic';-inkscape-font-specification:'Simplified Arabic';letter-spacing:0px;word-spacing:0px;direction:rtl;fill:#000000;fill-opacity:1;stroke:none"
         id="text1041">
        <path
           d="m 430.31766,-184.17868 q 0,2.77083 -1.85938,6.5625 l -1.09375,-0.4375 q 0.4375,-2.3151 0.4375,-3.79167 0,-1.18489 -0.16406,-2.97135 -0.14584,-1.80469 -0.45573,-4.2474 -0.3099,-2.33333 -0.875,-5.23177 -0.23698,-1.20312 -0.36458,-1.8776 -0.10938,-0.69271 -0.10938,-0.875 0,-1.11198 1.98698,-4.92188 h 0.20052 l 1.05729,6.16146 q 0.63802,3.77344 0.92969,6.70834 0.3099,2.93489 0.3099,4.92187 z m 0.71093,-21.21875 q -0.14583,0.72917 -0.52864,1.33073 -0.38282,0.60156 -0.91146,0.76562 l -5.17708,1.6224 q 0.18229,-0.60156 0.51041,-1.13021 0.34636,-0.52864 1.11198,-1.0026 -0.94792,-0.65625 -0.94792,-1.23959 0,-0.32812 0.14584,-0.74739 0.14583,-0.41927 0.49219,-0.89323 0.82031,-1.13021 1.73177,-1.76823 0.91145,-0.63802 1.67708,-0.63802 0.49219,0 0.78385,0.27344 0.29167,0.27343 0.29167,0.78385 0,0.45573 -0.16406,0.89323 -0.14584,0.41927 -0.4375,0.94792 -0.51042,-0.29167 -0.94792,-0.4375 -0.41927,-0.14584 -0.63802,-0.14584 -0.78385,0 -1.3125,0.58334 0,0.23698 0.89323,0.72916 0.47396,0.25521 0.83854,0.38282 0.36458,0.10937 0.56511,0.10937 0.20052,0 0.67447,-0.0911 0.47396,-0.10938 1.34896,-0.32813 z"
           style="font-style:normal;font-variant:normal;font-weight:bold;font-stretch:normal;font-family:'Simplified Arabic';-inkscape-font-specification:'Simplified Arabic Bold'"
           id="path1043" />
        <path
           d="m 422.58848,-178.74639 -2.24218,-0.49219 -3.08073,0.36459 h -14.36459 v -4.95834 h 12.96094 q -4.04687,-4.17448 -7.32812,-4.17448 -0.82032,0 -2.00521,0.25521 1.96875,-4.48437 5.03125,-4.48437 1.71354,0 3.55469,1.36719 0.72916,0.5651 1.80468,1.62239 1.09375,1.05729 2.55209,2.66146 1.42187,1.54948 2.13281,2.00521 0.16406,0.10937 0.49219,0.23698 0.32812,0.1276 0.71093,0.25521 0.40104,0.1276 0.80209,0.2552 0.41927,0.10938 0.78385,0.1823 z m -5.92448,4.42969 -1.98697,3.53646 -3.79167,-2.09636 1.93229,-3.57291 z"
           style="font-style:normal;font-variant:normal;font-weight:bold;font-stretch:normal;font-family:'Simplified Arabic';-inkscape-font-specification:'Simplified Arabic Bold'"
           id="path1045" />
        <path
           d="m 404.12235,-178.45472 q 0,1.76823 -2.66146,4.64844 -2.7526,2.97135 -4.84896,2.97135 -1.58594,0 -3.46354,-0.91146 -1.60417,-0.80208 -4.99479,-3.13542 l 0.76562,-1.1302 q 2.78907,1.85937 4.8125,1.85937 1.23959,0 2.51563,-0.72917 1.23958,-0.6927 3.42708,-2.625 3.02604,-2.67968 3.02604,-4.15625 0,-0.71093 -0.58333,-1.93229 -0.65625,-1.33073 -1.60417,-2.22396 l 1.02084,-4.92187 q 2.58854,2.64323 2.58854,6.70833 z m -1.14844,-18.13802 -1.98698,3.53646 -3.79167,-2.09636 1.9323,-3.57291 z"
           style="font-style:normal;font-variant:normal;font-weight:bold;font-stretch:normal;font-family:'Simplified Arabic';-inkscape-font-specification:'Simplified Arabic Bold'"
           id="path1047" />
        <path
           d="m 394.95308,-184.17868 q 0,2.77083 -1.85938,6.5625 l -1.09375,-0.4375 q 0.4375,-2.3151 0.4375,-3.79167 0,-1.18489 -0.16406,-2.97135 -0.14583,-1.80469 -0.45573,-4.2474 -0.3099,-2.33333 -0.875,-5.23177 -0.23698,-1.20312 -0.36458,-1.8776 -0.10938,-0.69271 -0.10938,-0.875 0,-1.11198 1.98698,-4.92188 h 0.20052 l 1.05729,6.16146 q 0.63802,3.77344 0.92969,6.70834 0.3099,2.93489 0.3099,4.92187 z"
           style="font-style:normal;font-variant:normal;font-weight:bold;font-stretch:normal;font-family:'Simplified Arabic';-inkscape-font-specification:'Simplified Arabic Bold'"
           id="path1049" />
        <path
           d="m 387.80724,-185.23597 -1.22135,4.30208 q -1.40365,0.36458 -2.73438,0.89323 -1.3125,0.51042 -2.47916,1.14844 -1.16667,0.63802 -2.16927,1.38541 -0.98438,0.72917 -1.75,1.51303 l -0.83854,-0.52865 q 0.10937,-0.4375 0.27343,-0.91146 0.16407,-0.47396 0.36459,-0.92969 0.20052,-0.47395 0.4375,-0.875 0.23698,-0.41927 0.47395,-0.72916 -0.5651,-0.38282 -1.09375,-0.71094 -0.51041,-0.34635 -0.96614,-0.85677 -0.82031,-0.92969 -0.82031,-1.98698 0,-0.61979 0.47395,-1.69531 0.47396,-1.07552 1.34896,-2.38802 1.03907,-1.58594 2.02344,-2.4974 0.98438,-0.92969 2.11458,-0.92969 1.14844,0 1.98698,0.6198 0.20052,0.18229 0.60157,0.58333 0.41927,0.38281 0.85677,0.94792 l -1.36719,3.51822 q -1.65886,-1.45833 -2.35156,-1.45833 -0.36459,0 -0.7474,0.0365 -0.36458,0.0365 -0.76562,0.23698 -0.4375,0.21875 -0.69271,0.45573 -0.23698,0.21875 -0.23698,0.4375 0,1.20312 3.59114,2.40625 1.36719,-0.60157 2.82552,-1.11198 1.45834,-0.51042 2.86198,-0.875 z"
           style="font-style:normal;font-variant:normal;font-weight:bold;font-stretch:normal;font-family:'Simplified Arabic';-inkscape-font-specification:'Simplified Arabic Bold'"
           id="path1051" />
        <path
           d="m 357.47391,-184.17868 q 0,2.77083 -1.85938,6.5625 l -1.09375,-0.4375 q 0.4375,-2.3151 0.4375,-3.79167 0,-1.18489 -0.16406,-2.97135 -0.14584,-1.80469 -0.45573,-4.2474 -0.3099,-2.33333 -0.875,-5.23177 -0.23698,-1.20312 -0.36458,-1.8776 -0.10938,-0.69271 -0.10938,-0.875 0,-1.11198 1.98698,-4.92188 h 0.20052 l 1.05729,6.16146 q 0.63802,3.77344 0.92969,6.70834 0.3099,2.93489 0.3099,4.92187 z"
           style="font-style:normal;font-variant:normal;font-weight:bold;font-stretch:normal;font-family:'Simplified Arabic';-inkscape-font-specification:'Simplified Arabic Bold'"
           id="path1053" />
        <path
           d="m 350.87495,-178.87399 h -10.02604 v -4.95834 h 7.83854 l -2.20573,-12.3776 -1.16667,-0.76562 q 0,-1.0573 0.40104,-2.3698 0.40104,-1.3125 1.34896,-3.09895 l 0.83854,0.4375 q -0.0182,0.0911 -0.0547,0.23697 -0.0182,0.14584 -0.0182,0.34636 0,1.07552 2.91666,2.29687 -0.36458,2.44271 -1.20312,4.26563 l -0.65625,-0.25521 1.98698,11.28385 z"
           style="font-style:normal;font-variant:normal;font-weight:bold;font-stretch:normal;font-family:'Simplified Arabic';-inkscape-font-specification:'Simplified Arabic Bold'"
           id="path1055" />
        <path
           d="m 342.08849,-179.23858 -1.27604,0.36459 h -13.45312 v -4.95834 h 11.83073 q -0.49219,-0.60156 -1.02084,-1.1302 -0.51041,-0.52865 -1.07552,-0.98438 -0.69271,-0.5651 -1.40364,-1.11198 -0.71094,-0.54687 -1.42188,-1.11198 l -0.58333,0.65625 q -1.95052,-1.93229 -2.29688,-2.40625 -0.54687,-0.76562 -0.54687,-1.93229 0,-1.78646 0.25521,-2.58854 0.34635,-1.03906 1.54948,-1.8776 1.02083,-0.69271 2.97135,-1.58594 1.95052,-0.91146 4.88542,-2.0599 v 4.33854 q -5.90625,1.84115 -5.90625,2.42448 0,0.16407 1.3125,1.42188 0.89323,0.875 1.64062,1.65885 0.7474,0.78386 1.33073,1.47656 0.98438,1.16667 1.76823,2.33334 0.80208,1.14843 1.4401,2.35156 z"
           style="font-style:normal;font-variant:normal;font-weight:bold;font-stretch:normal;font-family:'Simplified Arabic';-inkscape-font-specification:'Simplified Arabic Bold'"
           id="path1057" />
        <path
           d="m 328.63536,-179.23858 -1.27604,0.36459 h -10.13541 v -4.95834 h 9.58854 q -0.3099,-1.73177 -2.00521,-3.73698 l 1.38542,-4.13802 h 0.23697 q 1.23959,1.4948 1.67709,2.98959 0.52864,1.78646 0.52864,5.08593 z m -2.20573,4.42969 -1.98697,3.53646 -3.79167,-2.09635 1.93229,-3.57292 z"
           style="font-style:normal;font-variant:normal;font-weight:bold;font-stretch:normal;font-family:'Simplified Arabic';-inkscape-font-specification:'Simplified Arabic Bold'"
           id="path1059" />
        <path
           d="m 318.49995,-179.32972 q 0,2.82552 -2.91667,4.97656 -2.9349,2.16927 -6.65365,2.16927 -1.5677,0 -2.80729,-0.40104 -1.22135,-0.40104 -2.07812,-1.16667 -0.85677,-0.76562 -1.3125,-1.8776 -0.4375,-1.11198 -0.4375,-2.53386 0,-2.64322 0.67448,-4.61197 0.76562,-2.29688 2.89843,-5.45053 l 1.13021,0.76563 q -2.625,3.9375 -2.625,6.81771 0,3.46354 4.70313,3.46354 3.20833,0 5.21354,-1.23958 2.00521,-1.25782 2.00521,-3.2448 0,-0.875 -0.0547,-1.58593 -0.0547,-0.72917 -0.14583,-1.33073 -0.18229,-0.96615 -0.40104,-2.20573 -0.21875,-1.25781 -0.47396,-2.625 -0.23698,-1.38542 -0.49219,-2.82552 -0.25521,-1.45833 -0.51042,-2.82552 -0.25521,-1.38542 -0.47396,-2.625 -0.21875,-1.23959 -0.40104,-2.22396 l 1.54948,-2.53385 h 0.61979 l 2.98959,19.03124 z"
           style="font-style:normal;font-variant:normal;font-weight:bold;font-stretch:normal;font-family:'Simplified Arabic';-inkscape-font-specification:'Simplified Arabic Bold'"
           id="path1061" />
        <path
           d="m 288.27599,-184.17868 q 0,2.77083 -1.85937,6.5625 l -1.09375,-0.4375 q 0.4375,-2.3151 0.4375,-3.79167 0,-1.18489 -0.16407,-2.97135 -0.14583,-1.80469 -0.45573,-4.2474 -0.30989,-2.33333 -0.875,-5.23177 -0.23697,-1.20312 -0.36458,-1.8776 -0.10937,-0.69271 -0.10937,-0.875 0,-1.11198 1.98698,-4.92188 h 0.20052 l 1.05729,6.16146 q 0.63802,3.77344 0.92969,6.70834 0.30989,2.93489 0.30989,4.92187 z"
           style="font-style:normal;font-variant:normal;font-weight:bold;font-stretch:normal;font-family:'Simplified Arabic';-inkscape-font-specification:'Simplified Arabic Bold'"
           id="path1063" />
        <path
           d="m 281.67703,-178.87399 h -10.02604 v -4.95834 h 7.83854 l -2.20573,-12.3776 -1.16666,-0.76562 q 0,-1.0573 0.40104,-2.3698 0.40104,-1.3125 1.34896,-3.09895 l 0.83854,0.4375 q -0.0182,0.0911 -0.0547,0.23697 -0.0182,0.14584 -0.0182,0.34636 0,1.07552 2.91667,2.29687 -0.36458,2.44271 -1.20313,4.26563 l -0.65625,-0.25521 1.98698,11.28385 z"
           style="font-style:normal;font-variant:normal;font-weight:bold;font-stretch:normal;font-family:'Simplified Arabic';-inkscape-font-specification:'Simplified Arabic Bold'"
           id="path1065" />
        <path
           d="m 272.89057,-179.23858 -1.27604,0.36459 q -1.82291,-0.18229 -3.6276,-0.78386 -1.78646,-0.60156 -3.60938,-1.53125 -1.53125,2.31511 -4.64843,2.31511 h -3.60938 v -4.95834 h 3.60938 q 3.39062,0 4.32031,-2.16927 0.98437,-2.33333 2.64323,-3.82812 1.4401,-1.3125 2.46094,-1.3125 0.94791,0 2.3151,2.80729 1.42187,2.95312 1.42187,5.46875 z m -3.40885,-5.10416 q -0.0365,-0.25521 -0.21875,-0.60157 -0.16406,-0.34635 -0.5651,-0.85677 -0.875,-1.07552 -1.51302,-1.07552 -0.71094,0 -1.20313,1.64063 1.34896,0.54687 2.13281,0.82031 0.78386,0.27344 1.20313,0.3099 z"
           style="font-style:normal;font-variant:normal;font-weight:bold;font-stretch:normal;font-family:'Simplified Arabic';-inkscape-font-specification:'Simplified Arabic Bold'"
           id="path1067" />
        <path
           d="m 257.39578,-179.23858 -1.27604,0.36459 h -19.54166 v -4.95834 h 12.96093 q -4.04687,-4.17448 -7.32812,-4.17448 -0.82031,0 -2.00521,0.25521 1.96875,-4.48437 5.03125,-4.48437 1.71354,0 3.55469,1.36719 0.72917,0.5651 1.80469,1.62239 1.09375,1.05729 2.55208,2.66146 1.42187,1.54948 2.13281,2.00521 0.69271,0.45573 2.11458,0.74739 z"
           style="font-style:normal;font-variant:normal;font-weight:bold;font-stretch:normal;font-family:'Simplified Arabic';-inkscape-font-specification:'Simplified Arabic Bold'"
           id="path1069" />
        <path
           d="m 237.83589,-180.13181 q 0,3.13542 -2.67969,6.19792 -2.66145,3.0625 -5.23177,3.0625 -1.49479,0 -3.3177,-0.96614 -1.76823,-0.94792 -5.50521,-3.8099 l 0.76562,-1.05729 q 1.71354,1.13021 2.64323,1.53125 1.38542,0.58333 2.9349,0.58333 3.66406,0 7.61979,-4.61198 v -0.10937 q -0.34636,0.0547 -0.63802,0.0729 -0.29167,0.0182 -0.52865,0.0182 -0.91146,0 -1.64062,-0.29166 -0.71094,-0.3099 -1.23959,-0.875 -0.51041,-0.58334 -0.78385,-1.38542 -0.27344,-0.80208 -0.27344,-1.82292 0,-2.7526 1.27604,-5.28645 1.36719,-2.73438 3.09896,-2.73438 1.44011,0 2.46094,2.00521 1.03906,2.00521 1.03906,4.77604 z m -2.1875,-3.70052 q -0.52864,-2.93489 -2.07812,-2.93489 -0.58334,0 -0.92969,0.49219 -0.3099,0.41927 -0.3099,0.92968 0,1.51302 2.625,1.51302 z"
           style="font-style:normal;font-variant:normal;font-weight:bold;font-stretch:normal;font-family:'Simplified Arabic';-inkscape-font-specification:'Simplified Arabic Bold'"
           id="path1071" />
        <path
           d="m 221.37495,-178.45472 q 0,1.78646 -2.66145,4.64844 -2.77084,2.97135 -4.84896,2.97135 -1.60417,0 -3.46354,-0.91146 -1.58594,-0.78385 -4.9948,-3.13542 l 0.76563,-1.1302 q 2.78906,1.85937 4.8125,1.85937 1.23958,0 2.51562,-0.72917 1.27605,-0.71093 3.42709,-2.625 3.02604,-2.67968 3.02604,-4.15625 0,-0.72916 -0.58333,-1.93229 -0.65625,-1.33073 -1.60417,-2.22396 l 1.02083,-4.92187 q 2.58854,2.64323 2.58854,6.70833 z"
           style="font-style:normal;font-variant:normal;font-weight:bold;font-stretch:normal;font-family:'Simplified Arabic';-inkscape-font-specification:'Simplified Arabic Bold'"
           id="path1073" />
        <path
           d="m 213.84631,-193.36618 q 0,0.80208 -0.20052,1.65885 -0.20052,0.83855 -0.49219,1.65886 h -0.14583 q -0.3099,-0.49219 -0.56511,-0.80209 -0.23698,-0.30989 -0.52864,-0.52864 -0.36459,-0.29167 -0.78386,-0.4375 -0.40104,-0.16406 -0.92969,-0.16406 -0.58333,0 -1.38541,0.2552 -0.80209,0.25521 -1.78646,0.875 -1.13021,0.69271 -1.67708,1.36719 -0.54688,0.67448 -0.54688,1.1849 0,0.30989 0.32813,0.49219 0.34635,0.18229 1.03906,0.20052 l 2.55208,0.0729 q 1.23959,0.0365 2.00521,0.18229 0.76563,0.12761 1.11198,0.32813 0.67448,0.40104 0.67448,1.49479 0,2.26042 -0.875,4.35677 -0.54688,1.33073 -1.40365,2.16927 -0.83854,0.85677 -1.93229,1.45834 -2.77083,1.54948 -5.48698,2.36979 -2.69791,0.83854 -5.21354,0.83854 -6.90885,0 -6.90885,-5.85156 0,-1.45834 0.18229,-2.71615 0.18229,-1.27604 0.54687,-2.36979 0.41927,-1.25781 1.27605,-2.88021 0.875,-1.62239 2.15104,-3.60937 l 0.96614,0.63802 q -3.11718,5.19531 -3.11718,8.23958 0,3.95573 4.81249,3.95573 4.17448,0 9.22396,-2.00521 1.71354,-0.69271 2.55209,-1.18489 0.83854,-0.51042 0.83854,-0.76563 0,-0.3099 -2.53386,-0.3099 -3.26302,0 -4.42968,-0.94791 -0.91146,-0.7474 -0.91146,-2.77084 0,-2.13281 2.38802,-5.43229 3.28125,-4.48437 6.41667,-4.48437 1.29427,0 2.04166,0.94792 0.7474,0.92968 0.7474,2.51562 z m -7.03646,21.92969 -1.98698,3.60937 -3.08073,-1.71354 -1.09375,1.98698 -3.40885,-1.89583 1.95052,-3.62761 3.09896,1.73177 1.07552,-2.00521 z"
           style="font-style:normal;font-variant:normal;font-weight:bold;font-stretch:normal;font-family:'Simplified Arabic';-inkscape-font-specification:'Simplified Arabic Bold'"
           id="path1075" />
      </g>
    </g>
  </g>
  <g
     inkscape:groupmode="layer"
     id="layer2"
     inkscape:label="Naming_Ar"
     transform="translate(-19.71335,-64.37564)">
    <g
       aria-label="الموصل"
       style="font-style:normal;font-variant:normal;font-weight:normal;font-stretch:normal;font-size:7.76111126px;line-height:1.25;font-family:'Simplified Arabic';-inkscape-font-specification:'Simplified Arabic';letter-spacing:0px;word-spacing:0px;direction:rtl;fill:#000000;fill-opacity:1;stroke:none;stroke-width:0.26458332"
       id="text1023">
      <path
         d="m 167.16009,179.33628 q 0,0.43959 -0.35623,1.06867 l -0.0682,-0.0379 q 0.0152,-0.15158 0.0227,-0.26148 0.008,-0.11369 0.008,-0.18569 0,-0.50781 -0.091,-1.43626 -0.0909,-0.92845 -0.26906,-2.27376 0.0644,-0.1478 0.14779,-0.31833 0.0872,-0.17053 0.18569,-0.3638 h 0.0265 q 0.19706,1.37183 0.29559,2.31924 0.0985,0.9474 0.0985,1.48931 z"
         style="stroke-width:0.26458332"
         id="path1147" />
      <path
         d="m 165.90952,180.30263 h -1.87207 v -0.65939 h 1.48932 l -0.45097,-3.21359 -0.19705,-0.0947 q 0,-0.25769 0.0455,-0.48507 0.0493,-0.23116 0.15916,-0.45096 l 0.0644,0.0227 q 0.004,0.1099 0.0455,0.18948 0.0455,0.0758 0.17432,0.12885 l 0.4396,0.18569 q 0,0.20084 -0.0493,0.39411 -0.0455,0.19327 -0.0909,0.3297 l -0.20464,-0.0606 0.44718,2.97105 z"
         style="stroke-width:0.26458332"
         id="path1149" />
      <path
         d="m 164.29894,180.26473 -0.26528,0.0379 h -0.12884 q -0.64803,0 -1.22026,-0.47749 -0.21221,0.26148 -0.43959,0.36759 -0.25011,0.1099 -0.67834,0.1099 h -0.59118 v -0.65939 h 0.57981 q 0.61013,0 0.99288,-0.55707 0.22737,-0.33349 0.57223,-0.5836 0.29559,-0.21222 0.55328,-0.27664 0.62529,0.95119 0.62529,1.41731 z m -0.43581,-0.70865 q -0.0834,-0.4017 -0.38275,-0.79961 -0.28422,0.0758 -0.50402,0.43959 0.3297,0.34865 0.85266,0.40928 z"
         style="stroke-width:0.26458332"
         id="path1151" />
      <path
         d="m 161.24072,180.06009 q 0,0.1478 -0.0265,0.31833 -0.0227,0.17053 -0.0834,0.34865 -0.0568,0.17811 -0.15159,0.35243 -0.0947,0.17811 -0.23495,0.33348 -0.32591,0.36381 -0.65561,0.53434 -0.3259,0.17053 -0.6897,0.17053 -0.18948,0 -0.40928,-0.0417 -0.21601,-0.0379 -0.46612,-0.12505 l -0.81477,-0.2918 0.0644,-0.15159 q 0.38653,0.0872 0.65181,0.12885 0.26906,0.0455 0.36001,0.0455 0.33727,0 0.6556,-0.10232 0.32212,-0.10232 0.65181,-0.34865 0.10611,-0.0796 0.23117,-0.19327 0.12885,-0.1099 0.24253,-0.23495 0.11748,-0.12506 0.20843,-0.25391 0.0947,-0.12884 0.13643,-0.24632 -0.28801,0 -0.5116,-0.0227 -0.2198,-0.0227 -0.37138,-0.10232 -0.14779,-0.0834 -0.22359,-0.24253 -0.0758,-0.15917 -0.0758,-0.4396 0,-0.0872 0.0227,-0.20842 0.0227,-0.12506 0.0682,-0.2577 0.0455,-0.13263 0.1099,-0.26148 0.0644,-0.13264 0.15158,-0.23496 0.0872,-0.10232 0.18948,-0.16674 0.10611,-0.0644 0.23117,-0.0644 0.15158,0 0.28422,0.0758 0.13643,0.0758 0.23496,0.23117 0.10232,0.15537 0.15916,0.40169 0.0606,0.24254 0.0606,0.57602 z m -0.31074,-0.42064 q -0.0455,-0.18569 -0.10611,-0.31454 -0.0606,-0.12885 -0.13264,-0.20843 -0.072,-0.0834 -0.15158,-0.12126 -0.0796,-0.0379 -0.15538,-0.0379 -0.12126,0 -0.21221,0.0834 -0.0872,0.0834 -0.0872,0.19706 0,0.2198 0.20085,0.31075 0.20464,0.091 0.64424,0.091 z"
         style="stroke-width:0.26458332"
         id="path1153" />
      <path
         d="m 158.44021,180.30263 h -4.48311 q -0.216,0 -0.35622,-0.11748 -0.14022,-0.11748 -0.21601,-0.30317 -0.35243,0.42065 -1.04593,0.42065 h -0.73139 v -0.65939 h 0.73139 q 0.28043,0 0.45854,-0.0568 0.1819,-0.0568 0.29559,-0.15537 0.27664,-0.24632 0.34865,-0.83371 l 0.216,0.0417 q -0.0189,0.15538 -0.0303,0.28043 -0.008,0.12506 -0.008,0.23117 0,0.2539 0.0872,0.37517 0.0872,0.11748 0.33727,0.11748 0.30696,0 0.74656,-0.14401 0.22737,-0.0758 0.42443,-0.17432 0.20085,-0.0985 0.37138,-0.2198 0.35623,-0.25011 0.59118,-0.40548 0.23496,-0.15538 0.35622,-0.2198 0.40928,-0.21222 0.88677,-0.21222 1.01941,0 1.01941,1.07625 z m -0.61771,-0.95119 q 0,-0.18569 -0.24632,-0.29559 -0.23117,-0.0985 -0.52297,-0.0985 -0.19327,0 -0.42065,0.0606 -0.22358,0.0568 -0.49643,0.19327 l -0.81856,0.41686 v 0.0152 h 1.7129 q 0.79203,0 0.79203,-0.2918 z"
         style="stroke-width:0.26458332"
         id="path1155" />
      <path
         d="m 151.87661,179.83272 q 0,0.4017 -0.15537,0.68592 -0.15538,0.28422 -0.42823,0.46991 -0.28422,0.19327 -0.66697,0.28043 -0.38275,0.0909 -0.8375,0.0909 -1.57269,0 -1.57269,-1.15204 0,-0.7655 0.6556,-1.95544 l 0.12127,0.072 q -0.49265,0.88297 -0.49265,1.43626 0,0.46233 0.34864,0.70865 0.33728,0.23496 0.93225,0.23496 0.64044,0 1.18614,-0.2198 0.59876,-0.24632 0.59876,-0.57981 0,-0.11748 -0.0227,-0.33348 -0.0189,-0.21601 -0.0568,-0.50781 -0.0341,-0.29559 -0.0872,-0.6556 -0.0493,-0.36002 -0.11369,-0.76929 -0.0606,-0.40928 -0.13264,-0.85266 -0.072,-0.44718 -0.14779,-0.9133 l 0.25769,-0.48507 h 0.0644 l 0.37138,2.57314 q 0.0872,0.62529 0.13263,1.10278 0.0455,0.4737 0.0455,0.76929 z"
         style="stroke-width:0.26458332"
         id="path1157" />
    </g>
    <g
       aria-label="عازل كهربائي"
       style="font-style:normal;font-variant:normal;font-weight:normal;font-stretch:normal;font-size:7.76111126px;line-height:1.25;font-family:'Simplified Arabic';-inkscape-font-specification:'Simplified Arabic';letter-spacing:0px;word-spacing:0px;direction:rtl;fill:#000000;fill-opacity:1;stroke:none;stroke-width:0.26458332"
       id="text1027">
      <path
         d="m 144.73764,107.00981 q -1.33773,0.49265 -2.70956,0.49265 h -0.94362 v -0.65939 h 0.94362 q -0.12127,-0.20085 -0.18569,-0.37896 -0.0606,-0.17811 -0.0606,-0.4017 0,-0.091 0.019,-0.19327 0.0189,-0.10232 0.0606,-0.20085 0.0455,-0.0985 0.1099,-0.18948 0.0682,-0.0947 0.15917,-0.17053 0.20084,-0.15917 0.40927,-0.2577 0.21222,-0.10232 0.48507,-0.10232 0.2577,0 0.45854,0.072 0.20464,0.0682 0.36002,0.18569 0.0606,0.0455 0.17053,0.14779 0.11369,0.10232 0.27285,0.28801 l -0.072,0.0644 q -0.51918,-0.14401 -0.90193,-0.14401 -0.52296,0 -0.82613,0.11748 -0.14401,0.0606 -0.25012,0.14021 -0.10231,0.0796 -0.10231,0.16296 0,0.0872 0.0644,0.19327 0.0644,0.10611 0.17432,0.216 0.11369,0.1099 0.26148,0.21601 0.1478,0.10232 0.31833,0.18569 0.2539,-0.0379 0.50023,-0.0834 0.25011,-0.0493 0.50023,-0.10611 0.25011,-0.0606 0.5078,-0.12884 0.2577,-0.072 0.53813,-0.15538 z"
         style="stroke-width:0.26458332"
         id="path1160" />
      <path
         d="m 141.34216,107.46456 -0.26528,0.0379 q -0.26148,0 -0.42064,-0.18948 -0.15538,-0.18948 -0.23117,-0.56844 -0.0909,-0.46991 -0.13643,-1.40974 -0.0455,-0.97013 -0.0909,-1.22783 -0.0796,-0.44338 -0.33727,-0.68592 l 0.44717,-0.70486 h 0.0265 q 0.18948,0.61391 0.24253,1.71669 l 0.0758,1.7129 q 0.0341,0.34864 0.16674,0.53812 0.10611,0.15917 0.22738,0.15917 h 0.29559 z"
         style="stroke-width:0.26458332"
         id="path1162" />
      <path
         d="m 139.56104,107.50246 q 0,0.61391 -0.72002,1.24299 -0.66318,0.57223 -1.13309,0.57223 -0.36381,0 -0.84509,-0.15916 -0.40548,-0.1478 -0.81476,-0.29938 l 0.0644,-0.15159 q 0.79203,0.15159 1.01183,0.15159 0.73139,0 1.46278,-0.64045 0.70108,-0.6177 0.70108,-1.17098 0,-0.54571 -0.56844,-1.17478 l 0.21601,-0.59497 q 0.62528,0.57602 0.62528,1.30362 z m -0.56844,-3.52812 -0.2918,0.55328 -0.61012,-0.32591 0.28043,-0.55328 z"
         style="stroke-width:0.26458332"
         id="path1164" />
      <path
         d="m 137.07885,107.03255 q 0,0.4017 -0.15537,0.68592 -0.15538,0.28422 -0.42823,0.46991 -0.28422,0.19327 -0.66697,0.28043 -0.37896,0.0909 -0.8375,0.0909 -1.57269,0 -1.57269,-1.15204 0,-0.7655 0.6556,-1.95544 l 0.12127,0.072 q -0.49265,0.87919 -0.49265,1.43627 0,0.46233 0.34865,0.70865 0.33727,0.23496 0.93224,0.23496 0.64423,0 1.18615,-0.2198 0.59875,-0.24632 0.59875,-0.57981 0,-0.71624 -0.46612,-3.49023 l -0.17432,-0.091 q 0,-0.25011 0.0493,-0.47749 0.0493,-0.22737 0.15917,-0.44717 l 0.0644,0.0227 q 0.008,0.12884 0.0493,0.19706 0.0417,0.0644 0.12505,0.0985 l 0.48507,0.20842 q 0,0.19327 -0.0493,0.38654 -0.0455,0.19327 -0.0909,0.33728 l -0.21601,-0.0682 0.19706,1.37941 q 0.0909,0.64803 0.13264,1.11415 0.0455,0.46233 0.0455,0.75792 z"
         style="stroke-width:0.26458332"
         id="path1166" />
      <path
         d="m 130.67442,107.50246 h -3.32349 v -0.65939 h 2.88389 q -0.4737,-0.71245 -1.52721,-1.34152 l -0.12505,0.11747 q -0.1099,-0.0872 -0.22359,-0.17053 -0.11369,-0.0872 -0.22359,-0.17432 -0.23495,-0.19327 -0.23495,-0.30317 0,-0.65181 0.32211,-1.0194 0.29559,-0.34107 1.01562,-0.61771 l 1.77732,-0.67834 v 0.65561 l -1.50068,0.52675 q -0.54949,0.19327 -0.84508,0.32591 -0.2918,0.13263 -0.2918,0.20842 0,0.0379 0.0379,0.091 0.0379,0.053 0.12506,0.11747 l 0.38654,0.28801 q 0.61392,0.45855 1.04214,0.9474 0.43202,0.48886 0.70487,1.02699 z"
         style="stroke-width:0.26458332"
         id="path1168" />
      <path
         d="m 126.40732,105.66071 q -0.12126,0.0834 -0.26148,0.2198 -0.14022,0.13642 -0.26906,0.2918 -0.12506,0.15158 -0.22738,0.30317 -0.0985,0.15158 -0.13263,0.25769 0.28422,-0.0379 0.5457,-0.13264 0.26148,-0.0985 0.45475,-0.23874 0,-0.0568 -0.008,-0.1478 -0.008,-0.0947 -0.019,-0.19327 -0.0114,-0.10232 -0.0265,-0.19706 -0.0152,-0.0947 -0.0265,-0.15916 z m 0.4017,2.41019 q 0,-0.1099 -0.14779,-0.21222 -0.14401,-0.10232 -0.36381,-0.17811 -0.21979,-0.0796 -0.4737,-0.12506 -0.2539,-0.0493 -0.46991,-0.0493 0.0682,0.17053 0.17432,0.31454 0.1099,0.144 0.25012,0.24632 0.14021,0.10611 0.30696,0.16295 0.16674,0.0569 0.35243,0.0569 0.072,0 0.14021,-0.0227 0.0682,-0.0227 0.11748,-0.0568 0.0531,-0.0303 0.0834,-0.0682 0.0303,-0.0379 0.0303,-0.0682 z m 0.17053,-0.56844 q 0.0265,0.0417 0.0417,0.0947 0.0189,0.053 0.0265,0.1099 0.0114,0.0568 0.0152,0.11369 0.004,0.053 0.004,0.0947 0,0.16295 -0.053,0.34864 -0.0493,0.18948 -0.1478,0.34864 -0.0985,0.16296 -0.24253,0.26906 -0.144,0.10611 -0.3297,0.10611 -0.28801,0 -0.5078,-0.14021 -0.21601,-0.14022 -0.36002,-0.35622 -0.144,-0.21601 -0.21979,-0.48128 -0.072,-0.26149 -0.072,-0.50781 h -0.84509 v -0.65939 q 0.12127,0 0.2577,0 0.14021,-0.004 0.27285,-0.0114 0.13642,-0.008 0.2539,-0.019 0.11748,-0.0152 0.19706,-0.0341 0.0303,-0.13642 0.11748,-0.30695 0.091,-0.17054 0.21601,-0.35244 0.12505,-0.18569 0.27664,-0.37138 0.15537,-0.18948 0.31832,-0.36001 0.16296,-0.17432 0.32212,-0.32212 0.16295,-0.15158 0.30317,-0.25769 h 0.0303 q 0.0303,0.0872 0.053,0.21601 0.0265,0.12505 0.0417,0.26148 0.0189,0.13643 0.0265,0.27285 0.0114,0.13264 0.0114,0.23875 0,0.24632 -0.16674,0.51538 -0.16674,0.26906 -0.46991,0.53055 h 1.26194 v 0.62149 l -0.26528,0.0379 z"
         style="stroke-width:0.26458332"
         id="path1170" />
      <path
         d="m 124.55421,107.50246 q 0,0.61391 -0.72003,1.24299 -0.66318,0.57223 -1.13309,0.57223 -0.3638,0 -0.84508,-0.15916 -0.20464,-0.0758 -0.40928,-0.15159 -0.20085,-0.072 -0.40549,-0.14779 l 0.0644,-0.15159 q 0.78065,0.15159 1.01182,0.15159 0.73139,0 1.46279,-0.64045 0.70107,-0.62149 0.70107,-1.17098 0,-0.54192 -0.56844,-1.17478 l 0.21601,-0.59497 q 0.62529,0.57602 0.62529,1.30362 z"
         style="stroke-width:0.26458332"
         id="path1172" />
      <path
         d="m 122.06823,107.50246 h -2.16008 v -0.65939 h 1.88343 q 0,-0.45476 -0.1061,-0.68213 -0.0379,-0.0834 -0.12885,-0.19706 -0.0872,-0.11748 -0.22738,-0.27285 l 0.28422,-0.59497 h 0.0265 q 0.25769,0.32591 0.32591,0.51918 0.10232,0.29558 0.10232,0.96256 z m -0.81098,2.02744 -0.2918,0.55328 -0.61013,-0.32591 0.28043,-0.55328 z"
         style="stroke-width:0.26458332"
         id="path1174" />
      <path
         d="m 120.16584,107.46456 -0.26527,0.0379 q -0.26148,0 -0.42064,-0.18948 -0.15538,-0.18948 -0.23117,-0.56844 -0.091,-0.46991 -0.13643,-1.40974 -0.0455,-0.97013 -0.091,-1.22783 -0.0796,-0.44338 -0.33727,-0.68592 l 0.44717,-0.70486 h 0.0265 q 0.18948,0.61391 0.24253,1.71669 l 0.0758,1.7129 q 0.0341,0.34864 0.16674,0.53812 0.10611,0.15917 0.22737,0.15917 h 0.29559 z"
         style="stroke-width:0.26458332"
         id="path1176" />
      <path
         d="m 118.38473,107.50246 h -2.16008 v -0.65939 h 1.88344 q 0,-0.45476 -0.10611,-0.68213 -0.0379,-0.0834 -0.12885,-0.19706 -0.0872,-0.11748 -0.22737,-0.27285 l 0.28422,-0.59497 h 0.0265 q 0.2577,0.32591 0.32591,0.51918 0.10232,0.29558 0.10232,0.96256 z m -0.27285,-3.51675 q 0,0.18948 -0.44718,0.34485 l -0.87918,0.30317 q 0,-0.2198 0.4737,-0.38654 -0.32212,-0.16296 -0.32212,-0.33349 0,-0.144 0.2539,-0.41685 0.27664,-0.28801 0.48886,-0.28801 0.23496,0 0.23496,0.23116 0,0.0947 -0.1099,0.28801 -0.14401,-0.13263 -0.31833,-0.13263 -0.10611,0 -0.20843,0.0455 -0.0985,0.0417 -0.0985,0.0985 0,0.072 0.21601,0.19327 0.21601,0.12127 0.37896,0.12127 0.16296,0 0.33728,-0.0682 z"
         style="stroke-width:0.26458332"
         id="path1178" />
      <path
         d="m 116.49372,107.46456 -0.26528,0.0379 h -0.39791 q -1.17098,0 -1.17098,0.26527 0,0.1099 0.35243,0.12506 0.0947,0.004 0.2539,0.0189 0.16296,0.0114 0.39033,0.0303 0.36002,0.0417 0.36002,0.25391 0,0.71244 -0.46992,1.03456 -0.5078,0.34864 -1.675,0.34864 -0.81477,0 -1.29605,-0.27664 -0.51159,-0.29559 -0.51159,-0.84129 0,-0.44339 0.24253,-0.93224 0.0493,-0.0985 0.16296,-0.28801 0.11368,-0.18948 0.29558,-0.4737 l 0.15159,0.0758 -0.28801,0.48886 q -0.21222,0.41306 -0.21222,0.68213 0,0.46233 0.48507,0.70865 0.45854,0.23117 1.26952,0.23117 0.52296,0 0.95877,-0.0872 0.50402,-0.10232 0.50402,-0.27664 0,-0.10611 -0.24633,-0.12885 l -0.60634,-0.0379 q -0.44338,-0.0265 -0.44338,-0.25011 0,-0.70487 0.59497,-1.06867 0.42443,-0.26148 0.89813,-0.26148 h 0.66319 z m -1.45521,2.67167 -0.29559,0.54571 -0.59876,-0.31833 -0.20464,0.38654 -0.61391,-0.31833 0.28043,-0.54949 0.60633,0.31075 0.20085,-0.37896 z"
         style="stroke-width:0.26458332"
         id="path1180" />
    </g>
    <g
       aria-label="موصل وقائي
(أحياناً يكون مجدولاً)"
       style="font-style:normal;font-variant:normal;font-weight:normal;font-stretch:normal;font-size:7.76111126px;line-height:1.25;font-family:'Simplified Arabic';-inkscape-font-specification:'Simplified Arabic';text-align:center;letter-spacing:0px;word-spacing:0px;direction:rtl;text-anchor:middle;fill:#000000;fill-opacity:1;stroke:none;stroke-width:0.26458332"
       id="text1031">
      <path
         d="m 109.13499,171.30524 h -0.39412 q -0.64423,0 -1.22025,-0.47749 -0.21601,0.26527 -0.4396,0.36759 -0.24253,0.1099 -0.67834,0.1099 h -0.59117 v -0.65939 h 0.57981 q 0.61012,0 0.99287,-0.55707 0.22738,-0.33349 0.57223,-0.57981 0.30317,-0.2198 0.55328,-0.28043 0.62529,0.9474 0.62529,1.41731 z m -0.43581,-0.74655 q -0.0872,-0.40928 -0.38275,-0.79961 -0.28043,0.072 -0.50401,0.43959 0.32969,0.34865 0.85266,0.40928 z"
         style="text-align:center;text-anchor:middle;stroke-width:0.26458332"
         id="path1090" />
      <path
         d="m 106.07678,171.0627 q 0,0.1478 -0.0265,0.31833 -0.0227,0.17053 -0.0834,0.34864 -0.0568,0.17812 -0.15159,0.35244 -0.0947,0.17811 -0.23495,0.33348 -0.32591,0.36381 -0.6556,0.53434 -0.32591,0.17053 -0.68971,0.17053 -0.18948,0 -0.40928,-0.0417 -0.21601,-0.0379 -0.46612,-0.12505 l -0.81477,-0.2918 0.0644,-0.15159 q 0.38654,0.0872 0.65181,0.12885 0.26906,0.0455 0.36001,0.0455 0.33728,0 0.6556,-0.10232 0.32212,-0.10232 0.65182,-0.34865 0.10611,-0.0796 0.23116,-0.19327 0.12885,-0.1099 0.24254,-0.23495 0.11747,-0.12506 0.20843,-0.25391 0.0947,-0.12884 0.13642,-0.24632 -0.28801,0 -0.5116,-0.0227 -0.21979,-0.0227 -0.37138,-0.10232 -0.14779,-0.0834 -0.22358,-0.24253 -0.0758,-0.15917 -0.0758,-0.4396 0,-0.0872 0.0227,-0.20843 0.0227,-0.12505 0.0682,-0.25769 0.0455,-0.13263 0.1099,-0.26148 0.0644,-0.13264 0.15159,-0.23496 0.0872,-0.10232 0.18948,-0.16674 0.10611,-0.0644 0.23116,-0.0644 0.15159,0 0.28422,0.0758 0.13643,0.0758 0.23496,0.23117 0.10232,0.15537 0.15916,0.40169 0.0606,0.24254 0.0606,0.57602 z m -0.31075,-0.42064 q -0.0455,-0.18569 -0.10611,-0.31454 -0.0606,-0.12885 -0.13264,-0.20843 -0.072,-0.0834 -0.15158,-0.12126 -0.0796,-0.0379 -0.15537,-0.0379 -0.12127,0 -0.21222,0.0834 -0.0872,0.0834 -0.0872,0.19706 0,0.2198 0.20085,0.31075 0.20463,0.0909 0.64423,0.0909 z"
         style="text-align:center;text-anchor:middle;stroke-width:0.26458332"
         id="path1092" />
      <path
         d="m 103.27626,171.30524 h -4.483106 q -0.216007,0 -0.356223,-0.11748 -0.140215,-0.11748 -0.216007,-0.30317 -0.352433,0.42065 -1.045931,0.42065 h -0.731394 v -0.65939 h 0.731394 q 0.280431,0 0.458542,-0.0568 0.181901,-0.0568 0.295589,-0.15537 0.276641,-0.24632 0.348644,-0.83371 l 0.216007,0.0417 q -0.01895,0.15538 -0.03032,0.28043 -0.0076,0.12506 -0.0076,0.23117 0,0.2539 0.08716,0.37517 0.08716,0.11748 0.337275,0.11748 0.306958,0 0.746552,-0.14401 0.227377,-0.0758 0.424433,-0.17432 0.20085,-0.0985 0.37138,-0.2198 0.35623,-0.25011 0.59118,-0.40548 0.23496,-0.15538 0.35623,-0.2198 0.40927,-0.21222 0.88676,-0.21222 1.01941,0 1.01941,1.07625 z m -0.61771,-0.95119 q 0,-0.18569 -0.24632,-0.29559 -0.23117,-0.0985 -0.52297,-0.0985 -0.19327,0 -0.42064,0.0606 -0.22359,0.0568 -0.49644,0.19327 l -0.81856,0.41686 v 0.0152 h 1.7129 q 0.79203,0 0.79203,-0.2918 z"
         style="text-align:center;text-anchor:middle;stroke-width:0.26458332"
         id="path1094" />
      <path
         d="m 96.712663,170.83533 q 0,0.4017 -0.155374,0.68592 -0.155374,0.28422 -0.428225,0.46991 -0.284221,0.19327 -0.666971,0.28043 -0.38275,0.0909 -0.837503,0.0909 -1.572686,0 -1.572686,-1.15204 0,-0.7655 0.655602,-1.95544 l 0.121267,0.072 q -0.492648,0.88298 -0.492648,1.43627 0,0.46233 0.348643,0.70865 0.337275,0.23496 0.932243,0.23496 0.640443,0 1.186146,-0.2198 0.598758,-0.24632 0.598758,-0.57981 0,-0.11748 -0.02274,-0.33348 -0.01895,-0.21601 -0.05684,-0.50781 -0.03411,-0.29559 -0.08716,-0.6556 -0.04926,-0.36002 -0.113688,-0.76929 -0.06063,-0.40928 -0.132636,-0.85266 -0.072,-0.44718 -0.147794,-0.9133 l 0.257693,-0.48507 h 0.06442 l 0.371381,2.57314 q 0.08716,0.62529 0.132636,1.10278 0.04548,0.4737 0.04548,0.76929 z"
         style="text-align:center;text-anchor:middle;stroke-width:0.26458332"
         id="path1096" />
      <path
         d="m 90.312019,171.0627 q 0,0.1478 -0.02653,0.31833 -0.02274,0.17053 -0.08337,0.34864 -0.05684,0.17812 -0.151584,0.35244 -0.09474,0.17811 -0.234956,0.33348 -0.325906,0.36381 -0.655601,0.53434 -0.325906,0.17053 -0.689708,0.17053 -0.189481,0 -0.409278,-0.0417 -0.216007,-0.0379 -0.466121,-0.12505 l -0.814765,-0.2918 0.06442,-0.15159 q 0.38654,0.0872 0.651812,0.12885 0.269062,0.0455 0.360013,0.0455 0.337274,0 0.655601,-0.10232 0.322117,-0.10232 0.648023,-0.35244 0.109898,-0.0834 0.234955,-0.19706 0.128847,-0.1099 0.246325,-0.23874 0.117477,-0.13264 0.208428,-0.27285 0.09474,-0.14022 0.136426,-0.28043 l -0.01516,-0.0114 q -0.09474,0.0303 -0.204638,0.053 -0.109899,0.0227 -0.284221,0.0227 -0.314537,0 -0.500228,-0.19327 -0.181901,-0.19327 -0.181901,-0.61392 0,-0.0872 0.02274,-0.20843 0.02274,-0.12505 0.06821,-0.25769 0.04547,-0.13263 0.109898,-0.26148 0.06442,-0.13264 0.151585,-0.23496 0.08716,-0.10232 0.18948,-0.16674 0.106109,-0.0644 0.231166,-0.0644 0.151584,0 0.28422,0.0758 0.136426,0.0758 0.234956,0.23117 0.102319,0.15537 0.159163,0.40169 0.06063,0.24254 0.06063,0.57602 z m -0.318327,-0.49264 q -0.04169,-0.16296 -0.106109,-0.28044 -0.06063,-0.11747 -0.132636,-0.18948 -0.072,-0.072 -0.151584,-0.1061 -0.07579,-0.0341 -0.147795,-0.0341 -0.06063,0 -0.117478,0.0265 -0.05305,0.0227 -0.09474,0.0644 -0.0379,0.0379 -0.06442,0.0909 -0.02274,0.0531 -0.02274,0.11369 0,0.16674 0.09853,0.26906 0.102319,0.0985 0.318327,0.0985 0.159163,0 0.250114,-0.0152 0.09474,-0.0152 0.170532,-0.0379 z"
         style="text-align:center;text-anchor:middle;stroke-width:0.26458332"
         id="path1098" />
      <path
         d="m 87.507712,171.30524 h -2.341976 v -0.65939 h 2.019859 q 0,-0.33728 -0.07958,-0.63287 -0.424435,0.13643 -0.610126,0.13643 -0.276641,0 -0.450963,-0.14022 -0.200849,-0.15916 -0.200849,-0.45854 0,-0.52296 0.19327,-0.92087 0.212218,-0.4396 0.549492,-0.4396 0.462332,0 0.712446,0.72761 0.208429,0.59497 0.208429,1.40215 z m -0.617706,-1.9706 q -0.05306,-0.13263 -0.170532,-0.27664 -0.159164,-0.18948 -0.303169,-0.18948 -0.102319,0 -0.170532,0.0872 -0.06442,0.0872 -0.06442,0.20085 0,0.30317 0.333485,0.30317 0.185691,0 0.375171,-0.12506 z m 0.435804,-2.06533 -0.295589,0.5457 -0.598757,-0.31832 -0.204639,0.38654 -0.613916,-0.31833 0.280431,-0.54949 0.606337,0.31074 0.200849,-0.37896 z"
         style="text-align:center;text-anchor:middle;stroke-width:0.26458332"
         id="path1100" />
      <path
         d="m 85.423429,171.26734 -0.265272,0.0379 q -0.261483,0 -0.420647,-0.18948 -0.155373,-0.18948 -0.231166,-0.56844 -0.09095,-0.46991 -0.136425,-1.40974 -0.04548,-0.97013 -0.09095,-1.22783 -0.07958,-0.44338 -0.337275,-0.68592 l 0.447174,-0.70486 h 0.02653 q 0.18948,0.61391 0.242535,1.71669 l 0.07579,1.7129 q 0.03411,0.34864 0.166742,0.53812 0.106109,0.15917 0.227377,0.15917 h 0.295589 z"
         style="text-align:center;text-anchor:middle;stroke-width:0.26458332"
         id="path1102" />
      <path
         d="M 83.642314,171.30524 H 81.48224 v -0.65939 h 1.883433 q 0,-0.45476 -0.106109,-0.68213 -0.0379,-0.0834 -0.128846,-0.19706 -0.08716,-0.11748 -0.227377,-0.27285 l 0.284221,-0.59497 h 0.02653 q 0.257693,0.32591 0.325906,0.51918 0.102319,0.29558 0.102319,0.96256 z m -0.272851,-3.51675 q 0,0.18948 -0.447174,0.34485 l -0.879188,0.30317 q 0,-0.2198 0.473701,-0.38654 -0.322117,-0.16295 -0.322117,-0.33349 0,-0.144 0.253904,-0.41685 0.276641,-0.28801 0.488859,-0.28801 0.234955,0 0.234955,0.23116 0,0.0947 -0.109898,0.28801 -0.144005,-0.13263 -0.318327,-0.13263 -0.106109,0 -0.208428,0.0455 -0.09853,0.0417 -0.09853,0.0985 0,0.072 0.216008,0.19327 0.216007,0.12127 0.37896,0.12127 0.162953,0 0.337275,-0.0682 z"
         style="text-align:center;text-anchor:middle;stroke-width:0.26458332"
         id="path1104" />
      <path
         d="m 81.751302,171.26734 -0.265273,0.0379 h -0.397908 q -1.170988,0 -1.170988,0.26527 0,0.1099 0.352433,0.12506 0.09474,0.004 0.253903,0.0189 0.162953,0.0114 0.39033,0.0303 0.360012,0.0417 0.360012,0.25391 0,0.71244 -0.469911,1.03456 -0.507807,0.34864 -1.675005,0.34864 -0.814765,0 -1.296045,-0.27664 -0.511597,-0.29559 -0.511597,-0.84129 0,-0.44338 0.242535,-0.93224 0.04926,-0.0985 0.162953,-0.28801 0.113688,-0.18948 0.295589,-0.4737 l 0.151584,0.0758 -0.28801,0.48886 q -0.212218,0.41306 -0.212218,0.68213 0,0.46233 0.48507,0.70865 0.458542,0.23117 1.269518,0.23117 0.522965,0 0.95877,-0.0872 0.504017,-0.10232 0.504017,-0.27664 0,-0.10611 -0.246324,-0.12885 l -0.606337,-0.0379 q -0.443384,-0.0265 -0.443384,-0.25011 0,-0.70487 0.594968,-1.06867 0.424436,-0.26148 0.898137,-0.26148 h 0.663181 z m -1.455209,2.67167 -0.295589,0.54571 -0.598758,-0.31833 -0.204638,0.38654 -0.613916,-0.31833 0.28043,-0.54949 0.606337,0.31075 0.200849,-0.37896 z"
         style="text-align:center;text-anchor:middle;stroke-width:0.26458332"
         id="path1106" />
      <path
         d="m 117.59718,179.83564 q 0,1.39457 -0.60255,2.59967 -0.27664,0.54949 -0.93224,1.39457 l -0.17812,-0.16295 q 0.9133,-2.18281 0.9133,-3.80855 0,-1.36047 -0.29938,-2.38366 -0.13264,-0.45476 -0.60634,-1.50448 l 0.15538,-0.1819 q 0.6935,0.89435 0.9474,1.39837 0.60255,1.19372 0.60255,2.64893 z"
         style="text-align:center;text-anchor:middle;stroke-width:0.26458332"
         id="path1108" />
      <path
         d="m 115.475,180.04028 q 0,0.43959 -0.35623,1.06867 l -0.0682,-0.0379 q 0.0152,-0.15158 0.0227,-0.26148 0.008,-0.11369 0.008,-0.18569 0,-0.50781 -0.0909,-1.43626 -0.091,-0.92846 -0.26906,-2.27377 0.0644,-0.14779 0.14779,-0.31832 0.0872,-0.17053 0.18569,-0.3638 h 0.0265 q 0.19706,1.37183 0.29559,2.31923 0.0985,0.94741 0.0985,1.48932 z m 0.19706,-4.39594 q 0,0.18948 -0.44718,0.34485 l -0.87918,0.30317 q 0,-0.2198 0.4737,-0.38654 -0.32212,-0.16295 -0.32212,-0.33349 0,-0.144 0.2539,-0.41685 0.27664,-0.28801 0.48886,-0.28801 0.23496,0 0.23496,0.23116 0,0.0947 -0.1099,0.28801 -0.14401,-0.13263 -0.31833,-0.13263 -0.10611,0 -0.20843,0.0455 -0.0985,0.0417 -0.0985,0.0985 0,0.072 0.21601,0.19327 0.21601,0.12127 0.37896,0.12127 0.16296,0 0.33728,-0.0682 z"
         style="text-align:center;text-anchor:middle;stroke-width:0.26458332"
         id="path1110" />
      <path
         d="m 113.9781,181.04073 -0.38654,-0.0947 -0.54949,0.0606 h -3.19085 v -0.65939 h 3.05063 q -0.58359,-0.45476 -0.95498,-0.64045 -0.46991,-0.23495 -0.92087,-0.23495 -0.0985,0 -0.19706,0.008 -0.0947,0.004 -0.19327,0.0189 0.27285,-0.69729 0.93982,-0.69729 0.38654,0 0.9133,0.37896 0.11748,0.0834 0.32969,0.26527 0.21222,0.17811 0.52297,0.45854 0.22738,0.20464 0.38654,0.30317 0.15916,0.0947 0.24632,0.11748 l 0.34865,0.0872 z"
         style="text-align:center;text-anchor:middle;stroke-width:0.26458332"
         id="path1112" />
      <path
         d="m 110.1165,180.96873 -0.26528,0.0379 h -1.8948 v -0.65939 h 1.88343 q 0,-0.45476 -0.1061,-0.68213 -0.0379,-0.0834 -0.12885,-0.19706 -0.0872,-0.11748 -0.22738,-0.27285 l 0.28422,-0.59497 h 0.0265 q 0.25769,0.3259 0.32591,0.51917 0.10232,0.29559 0.10232,0.96256 z m -0.34107,0.90572 -0.29559,0.5457 -0.59876,-0.31833 -0.20463,0.38654 -0.61392,-0.31832 0.28043,-0.5495 0.60634,0.31075 0.20085,-0.37896 z"
         style="text-align:center;text-anchor:middle;stroke-width:0.26458332"
         id="path1114" />
      <path
         d="m 108.21411,180.96873 -0.26527,0.0379 q -0.26148,0 -0.42064,-0.18948 -0.15538,-0.18948 -0.23117,-0.56844 -0.091,-0.46991 -0.13643,-1.40974 -0.0455,-0.97014 -0.091,-1.22783 -0.0796,-0.44338 -0.33727,-0.68592 l 0.44717,-0.70486 h 0.0265 q 0.18948,0.61391 0.24253,1.71669 l 0.0758,1.7129 q 0.0341,0.34864 0.16674,0.53812 0.10611,0.15917 0.22738,0.15917 h 0.29558 z"
         style="text-align:center;text-anchor:middle;stroke-width:0.26458332"
         id="path1116" />
      <path
         d="m 106.433,181.00663 h -2.16007 v -0.65939 h 1.88343 q 0,-0.45476 -0.10611,-0.68213 -0.0379,-0.0834 -0.12885,-0.19706 -0.0872,-0.11748 -0.22737,-0.27285 l 0.28422,-0.59497 h 0.0265 q 0.25769,0.3259 0.3259,0.51917 0.10232,0.29559 0.10232,0.96256 z m -0.35622,-3.40307 -0.2918,0.55328 -0.61013,-0.3259 0.28043,-0.55328 z"
         style="text-align:center;text-anchor:middle;stroke-width:0.26458332"
         id="path1118" />
      <path
         d="m 104.53062,180.96873 -0.26527,0.0379 q -0.26149,0 -0.42065,-0.18948 -0.15537,-0.18948 -0.23116,-0.56844 -0.091,-0.46991 -0.13643,-1.40974 -0.0455,-0.97014 -0.0909,-1.22783 -0.0796,-0.44338 -0.33728,-0.68592 l 0.44718,-0.70486 h 0.0265 q 0.18948,0.61391 0.24253,1.71669 l 0.0758,1.7129 q 0.0341,0.34864 0.16674,0.53812 0.10611,0.15917 0.22738,0.15917 h 0.29559 z"
         style="text-align:center;text-anchor:middle;stroke-width:0.26458332"
         id="path1120" />
      <path
         d="m 104.00765,174.64767 q 0,0.17811 -0.0985,0.26148 -0.0985,0.0834 -0.43959,0.2198 l -0.75792,0.30317 q 0,-0.18948 0.15158,-0.2918 0.0417,-0.0303 0.3297,-0.15158 z m 0,0.57981 q 0,0.17811 -0.10611,0.26527 -0.0834,0.0682 -0.43201,0.21222 l -0.75792,0.31075 q 0,-0.19327 0.15158,-0.29559 0.0455,-0.0341 0.3297,-0.15159 z"
         style="text-align:center;text-anchor:middle;stroke-width:0.26458332"
         id="path1122" />
      <path
         d="m 98.717363,181.00663 h -2.160074 v -0.65939 h 1.883433 q 0,-0.45476 -0.106109,-0.68213 -0.0379,-0.0834 -0.128846,-0.19706 -0.08716,-0.11748 -0.227377,-0.27285 l 0.284221,-0.59497 h 0.02653 q 0.257693,0.3259 0.325906,0.51917 0.102319,0.29559 0.102319,0.96256 z m -0.341064,0.86782 -0.295589,0.5457 -0.598758,-0.31833 -0.204638,0.38654 -0.613916,-0.31832 0.28043,-0.5495 0.606337,0.31075 0.200849,-0.37896 z"
         style="text-align:center;text-anchor:middle;stroke-width:0.26458332"
         id="path1124" />
      <path
         d="m 96.818772,180.96873 -0.265272,0.0379 h -3.058212 v -0.65939 h 2.88389 q -0.473701,-0.71245 -1.527211,-1.34152 l -0.125057,0.11747 q -0.109899,-0.0872 -0.223587,-0.17053 -0.113688,-0.0872 -0.223586,-0.17432 -0.234956,-0.19327 -0.234956,-0.30317 0,-0.65181 0.322116,-1.0194 0.29559,-0.34107 1.015615,-0.61771 l 1.777324,-0.67834 v 0.6556 l -1.500683,0.52676 q -0.549493,0.19327 -0.845082,0.32591 -0.2918,0.13263 -0.2918,0.20842 0,0.0379 0.0379,0.091 0.0379,0.0531 0.125057,0.11748 l 0.38654,0.28801 q 0.613916,0.45854 1.042141,0.9474 0.432015,0.48886 0.704867,1.02699 z"
         style="text-align:center;text-anchor:middle;stroke-width:0.26458332"
         id="path1126" />
      <path
         d="m 93.760559,180.76409 q 0,0.1478 -0.02653,0.31833 -0.02274,0.17053 -0.08337,0.34864 -0.05684,0.17812 -0.151584,0.35244 -0.09474,0.17811 -0.234956,0.33348 -0.325906,0.3638 -0.655602,0.53434 -0.325906,0.17053 -0.689708,0.17053 -0.18948,0 -0.409277,-0.0417 -0.216007,-0.0379 -0.466121,-0.12505 l -0.814766,-0.2918 0.06442,-0.15159 q 0.386539,0.0872 0.651812,0.12885 0.269062,0.0455 0.360012,0.0455 0.337275,0 0.655602,-0.10232 0.322116,-0.10231 0.651812,-0.34864 0.106109,-0.0796 0.231166,-0.19327 0.128847,-0.1099 0.242535,-0.23495 0.117477,-0.12506 0.208428,-0.25391 0.09474,-0.12884 0.136426,-0.24632 -0.28801,0 -0.511597,-0.0227 -0.219797,-0.0227 -0.371381,-0.10232 -0.147795,-0.0834 -0.223587,-0.24253 -0.07579,-0.15917 -0.07579,-0.4396 0,-0.0872 0.02274,-0.20843 0.02274,-0.12505 0.06821,-0.25769 0.04548,-0.13264 0.109898,-0.26148 0.06442,-0.13264 0.151584,-0.23496 0.08716,-0.10232 0.189481,-0.16674 0.106108,-0.0644 0.231165,-0.0644 0.151585,0 0.284221,0.0758 0.136426,0.0758 0.234955,0.23116 0.10232,0.15538 0.159164,0.4017 0.06063,0.24254 0.06063,0.57602 z m -0.310747,-0.42064 q -0.04547,-0.18569 -0.106109,-0.31454 -0.06063,-0.12885 -0.132636,-0.20843 -0.072,-0.0834 -0.151585,-0.12127 -0.07958,-0.0379 -0.155373,-0.0379 -0.121268,0 -0.212218,0.0834 -0.08716,0.0834 -0.08716,0.19706 0,0.2198 0.200849,0.31075 0.204639,0.0909 0.644233,0.0909 z"
         style="text-align:center;text-anchor:middle;stroke-width:0.26458332"
         id="path1128" />
      <path
         d="m 90.960042,180.62767 q 0,0.40927 -0.132637,0.67455 -0.132636,0.26906 -0.363802,0.45854 -0.136425,0.11369 -0.310747,0.20843 -0.174322,0.0985 -0.39033,0.17053 -0.216007,0.0758 -0.4737,0.11748 -0.253904,0.0417 -0.549493,0.0417 -1.599213,0 -1.599213,-1.15962 0,-0.7655 0.583599,-1.95922 l 0.151584,0.0682 q -0.435804,0.89435 -0.435804,1.43626 0,0.95877 1.292255,0.95877 0.727604,0 1.273307,-0.2539 0.682129,-0.31075 0.682129,-0.87919 0,-0.75034 -0.394119,-1.23541 l 0.303169,-0.75413 h 0.02653 q 0.337275,0.54191 0.337275,1.44763 z m -1.402154,-2.92179 -0.2918,0.55328 -0.610126,-0.3259 0.280431,-0.55328 z"
         style="text-align:center;text-anchor:middle;stroke-width:0.26458332"
         id="path1130" />
      <path
         d="m 84.404024,181.00663 h -0.394119 q -0.644233,0 -1.220253,-0.47749 -0.216007,0.26527 -0.439594,0.36759 -0.242535,0.1099 -0.67834,0.1099 H 81.08054 v -0.65939 h 0.57981 q 0.610126,0 0.992876,-0.55708 0.227377,-0.33348 0.572231,-0.5798 0.303168,-0.2198 0.553282,-0.28044 0.625285,0.94741 0.625285,1.41732 z m -0.435805,-0.74655 q -0.08716,-0.40928 -0.38275,-0.79961 -0.280431,0.072 -0.504017,0.43959 0.329695,0.34865 0.852661,0.40928 z"
         style="text-align:center;text-anchor:middle;stroke-width:0.26458332"
         id="path1132" />
      <path
         d="m 81.311707,180.96873 -0.227377,0.0379 h -4.111721 v -0.65939 h 3.050632 q -0.583599,-0.45476 -0.95498,-0.64045 -0.469911,-0.23495 -0.920874,-0.23495 -0.09853,0 -0.19706,0.008 -0.09474,0.004 -0.19327,0.0189 0.272852,-0.69729 0.939822,-0.69729 0.38654,0 0.913295,0.37896 0.117478,0.0834 0.329696,0.26527 0.212218,0.17811 0.522965,0.45854 0.447174,0.40928 0.621495,0.44339 h 0.227377 z m -1.928909,0.85645 -0.2918,0.55328 -0.610126,-0.3259 0.280431,-0.55328 z"
         style="text-align:center;text-anchor:middle;stroke-width:0.26458332"
         id="path1134" />
      <path
         d="m 77.234091,180.96873 -0.265272,0.0379 h -1.432471 q -0.212217,0 -0.386539,-0.12506 -0.174322,-0.12506 -0.174322,-0.29559 0,-0.28043 0.072,-0.51917 h 0.08716 q 0.07579,0.28043 0.401698,0.28043 h 1.466578 q 0,-1.47416 -0.973929,-1.77733 l 0.05684,-0.73518 q 0.659391,0.3259 0.932243,1.02698 0.216007,0.56465 0.216007,1.48553 z"
         style="text-align:center;text-anchor:middle;stroke-width:0.26458332"
         id="path1136" />
      <path
         d="m 74.619264,180.76409 q 0,0.1478 -0.02653,0.31833 -0.02274,0.17053 -0.08337,0.34864 -0.05684,0.17812 -0.151584,0.35244 -0.09474,0.17811 -0.234955,0.33348 -0.325906,0.3638 -0.655602,0.53434 -0.325906,0.17053 -0.689708,0.17053 -0.18948,0 -0.409277,-0.0417 -0.216008,-0.0379 -0.466122,-0.12505 l -0.814765,-0.2918 0.06442,-0.15159 q 0.38654,0.0872 0.651812,0.12885 0.269062,0.0455 0.360013,0.0455 0.337275,0 0.655602,-0.10232 0.322116,-0.10231 0.648022,-0.35243 0.109899,-0.0834 0.234956,-0.19706 0.128846,-0.1099 0.246324,-0.23874 0.117478,-0.13264 0.208428,-0.27285 0.09474,-0.14022 0.136426,-0.28044 l -0.01516,-0.0114 q -0.09474,0.0303 -0.204639,0.0531 -0.109899,0.0227 -0.284221,0.0227 -0.314537,0 -0.500227,-0.19327 -0.181901,-0.19327 -0.181901,-0.61392 0,-0.0872 0.02274,-0.20843 0.02274,-0.12505 0.06821,-0.25769 0.04548,-0.13264 0.109899,-0.26148 0.06442,-0.13264 0.151584,-0.23496 0.08716,-0.10232 0.18948,-0.16674 0.106109,-0.0644 0.231166,-0.0644 0.151584,0 0.28422,0.0758 0.136426,0.0758 0.234956,0.23116 0.102319,0.15538 0.159163,0.4017 0.06063,0.24254 0.06063,0.57602 z m -0.318327,-0.49265 q -0.04169,-0.16295 -0.106109,-0.28043 -0.06063,-0.11747 -0.132636,-0.18948 -0.072,-0.072 -0.151584,-0.10611 -0.07579,-0.0341 -0.147795,-0.0341 -0.06063,0 -0.117478,0.0265 -0.05305,0.0227 -0.09474,0.0644 -0.0379,0.0379 -0.06442,0.0909 -0.02274,0.053 -0.02274,0.11369 0,0.16674 0.09853,0.26906 0.10232,0.0985 0.318327,0.0985 0.159163,0 0.250114,-0.0152 0.09474,-0.0152 0.170532,-0.0379 z"
         style="text-align:center;text-anchor:middle;stroke-width:0.26458332"
         id="path1138" />
      <path
         d="m 71.985488,176.30752 q 0.01137,0.20085 0.181902,0.27664 l 0.4737,0.2198 q -0.01137,0.19327 -0.06442,0.37138 -0.04927,0.17432 -0.125057,0.34864 l -0.246324,-0.0985 q 0,0.0265 0,0.0682 0,0.0417 0.0038,0.10232 0.0038,0.0606 0.0038,0.10232 0,0.0417 0,0.072 0,1.18614 -0.583599,2.16765 0.28801,0.52675 0.28801,0.90193 0,0.13263 -0.01137,0.25011 -0.01137,0.11369 -0.03032,0.2198 -0.86403,0.19327 -1.747008,0.19327 0,-0.0872 0.02274,-0.25012 0.02274,-0.16295 0.072,-0.40549 0.322117,-0.17432 0.591178,-0.39411 0.272852,-0.22359 0.496439,-0.50023 -0.38275,-0.72761 -0.928453,-1.54237 -0.269062,-0.39412 -0.405488,-0.39412 -0.03032,0 -0.06442,0.0152 -0.03411,0.0114 -0.072,0.0303 -0.03411,0.0152 -0.06821,0.0303 -0.03411,0.0114 -0.06063,0.0114 -0.212217,0 -0.659391,-0.62528 -0.162953,-0.22359 -0.162953,-0.47371 0,-0.56844 0.185691,-0.56844 0.227376,0 0.738973,0.61392 0.212218,0.2539 0.424436,0.55328 0.212217,0.29938 0.435804,0.64803 0.132636,0.20842 0.337275,0.55328 0.208428,0.34485 0.485069,0.83371 0.443384,-0.89056 0.443384,-2.34198 l -0.216007,-0.12505 q 0,-0.24254 0.04926,-0.46991 0.04926,-0.23117 0.136425,-0.41686 z m -0.371381,4.38078 q 0,-0.14021 -0.174322,-0.46612 -0.253903,0.3297 -0.742762,0.64423 v 0.0265 q 0.917084,-0.008 0.917084,-0.20464 z"
         style="text-align:center;text-anchor:middle;stroke-width:0.26458332"
         id="path1140" />
      <path
         d="m 70.189215,174.3445 q 0,0.17811 -0.09853,0.26148 -0.09853,0.0834 -0.439594,0.2198 l -0.757921,0.30317 q 0,-0.18948 0.151584,-0.2918 0.04169,-0.0303 0.329695,-0.15158 z m 0,0.57981 q 0,0.17811 -0.106108,0.26527 -0.08337,0.0682 -0.432015,0.21222 l -0.757921,0.31075 q 0,-0.19327 0.151584,-0.29559 0.04548,-0.0341 0.329695,-0.15158 z"
         style="text-align:center;text-anchor:middle;stroke-width:0.26458332"
         id="path1142" />
      <path
         d="m 66.831625,183.65177 -0.166742,0.17811 q -0.682129,-0.86024 -0.951191,-1.39078 -0.598758,-1.18994 -0.598758,-2.65272 0,-1.39458 0.606337,-2.59967 0.28801,-0.57981 0.936032,-1.39837 l 0.174322,0.16295 q -0.924663,2.12976 -0.924663,3.80477 0,1.35289 0.310747,2.37987 0.121268,0.41307 0.613916,1.51584 z"
         style="text-align:center;text-anchor:middle;stroke-width:0.26458332"
         id="path1144" />
    </g>
  </g>
</svg>
